<svg
  xmlns="http://www.w3.org/2000/svg"
  viewBox="0 -70 594.517 440"
  height="589.794"
  width="812.531"
>
  <defs>
    <clipPath id="a" clipPathUnits="userSpaceOnUse">
      <path d="M0 841.89h595.276V0H0z"/>
    </clipPath>
  </defs>
  <g clip-path="url(#a)" transform="matrix(1.33333 0 0 -1.33333 -90.8 753.346)">
    <path
      d="M513.28 452.897c0 88.986-99.499 161.12-222.236 161.12S68.808 541.883 68.808 452.897s99.5-161.121 222.236-161.121c122.737 0 222.235 72.135 222.235 161.121m-3.304 0c0 9.087-1.095 18.182-3.269 27.139-3.328 13.715-9.198 27.128-17.427 39.786-8.23 12.652-18.824 24.54-31.429 35.229-12.6 10.694-27.209 20.183-43.307 28.121-16.1 7.938-33.694 14.318-52.146 18.909-18.455 4.594-37.77 7.395-57.26 8.306-19.487.906-39.144-.081-58.269-2.925-19.123-2.848-37.71-7.546-55.1-13.932-17.392-6.386-33.58-14.454-47.993-23.906-14.416-9.456-27.053-20.292-37.475-32.109-10.425-11.816-18.634-24.611-24.367-37.931-5.733-13.314-8.99-27.156-9.68-41.056-.69-13.895 1.186-27.861 5.58-41.423 4.388-13.567 11.297-26.741 20.507-39.049 9.213-12.311 20.727-23.766 34.15-33.934 13.425-10.168 28.758-19.055 45.458-26.324 16.703-7.27 34.768-12.924 53.554-16.762 18.79-3.828 38.294-5.842 57.822-5.951 19.527-.109 39.075 1.678 57.943 5.297 18.87 3.617 37.057 9.07 53.916 16.15 16.86 7.088 32.384 15.795 46.031 25.817 13.644 10.015 25.41 21.34 34.886 33.547 9.48 12.212 16.674 25.304 21.36 38.82 4.327 12.49 6.515 25.331 6.515 38.181"
      fill-rule="evenodd"/>
    <path
      d="M513.28 452.897c0 88.984-99.499 161.12-222.236 161.12S68.808 541.881 68.808 452.897c0-88.984 99.5-161.121 222.236-161.121 122.737 0 222.235 72.137 222.235 161.121"
      fill="none" stroke="#000" stroke-width="1.417" stroke-linecap="round" stroke-linejoin="round"/>
    <path
      d="M509.976 452.897c0 9.088-1.096 18.178-3.27 27.141-3.328 13.713-9.197 27.128-17.428 39.781-8.23 12.654-18.824 24.543-31.427 35.234-12.601 10.691-27.21 20.18-43.31 28.118-16.1 7.936-33.691 14.319-52.146 18.912-18.452 4.592-37.77 7.394-57.257 8.301-19.487.908-39.144-.078-58.268-2.923-19.124-2.844-37.712-7.546-55.102-13.931-17.391-6.386-33.58-14.455-47.993-23.908-14.415-9.453-27.051-20.288-37.475-32.105-10.424-11.817-18.634-24.612-24.366-37.931-5.733-13.317-8.99-27.157-9.681-41.056-.69-13.9 1.186-27.861 5.578-41.425 4.39-13.569 11.3-26.737 20.51-39.049 9.212-12.313 20.725-23.762 34.15-33.932 13.424-10.17 28.758-19.053 45.459-26.324 16.7-7.272 34.767-12.928 53.554-16.762 18.787-3.832 38.292-5.842 57.82-5.953 19.529-.111 39.075 1.678 57.944 5.297 18.868 3.619 37.057 9.07 53.916 16.152 16.858 7.082 32.384 15.795 46.028 25.813 13.647 10.017 25.41 21.34 34.889 33.549 9.479 12.21 16.672 25.304 21.358 38.822 4.326 12.487 6.517 25.332 6.517 38.179"
      fill="none" stroke="#000" stroke-width=".709" stroke-linecap="round" stroke-linejoin="round"/>
    <path
      d="M309.038 353.21l16.254 1.156 20.312 5.225 29.891 8.99 17.991 11.313 10.156 10.732 3.194 5.219-8.126-6.381-22.634-12.76-18.864-5.224-20.023-4.641-19.733-2.609 13.057-2.903zm-32.345 21.459l-5.968-5.264-10.535-5.966-8.076-3.159-16.854-2.812-14.398-1.75 10.534-2.805 13.695-2.812 14.747-2.104 11.237-.699 8.426-.354 1.055 1.053 1.755 8.42 3.863 6.668 4.563 2.811 9.482 3.859 8.778 2.457-11.235.353-12.993 2.104-5.618 2.105zm-114.188 45.864l13.705-1.21 12.091-4.433 14.51-9.67 18.136-11.682 9.674-8.457 14.913-6.445 7.658-2.822-15.316 3.222-11.689 2.822-12.494 5.235-3.628 1.211 5.643-7.656 8.464-4.834 12.092-5.235-22.57 6.445-8.869 5.643-7.656 7.65-8.868 11.28-5.24 6.045-7.255 3.625-10.882 5.642-12.495 3.221zM275.521 548.8h-8.033l-4.92-2.072-3.11-1.553h-2.59l-3.109-1.035-1.816-1.037-2.59.516h-1.812l-3.109-1.036-2.59-.516-1.816-2.332-2.59-1.292-2.073-1.813-2.332-2.848-5.439-2.072-2.852-1.297-1.813-2.328-4.145-2.072-3.369-1.297-2.33-1.551-3.888-1.038-2.33-2.847-3.888-1.812-2.85-1.037-3.11-2.588-2.33-1.036-3.628-.775-1.296-1.038-1.554-1.036-3.367-1.557-3.888-1.812-2.848-.516-2.075-1.551-1.037-2.073-3.367-1.297-2.85-3.884-1.813-.776-2.59-3.109-2.073-1.036-1.296-2.849-1.037-2.588-1.812-3.365-2.85-2.072-1.556-1.557-.776-2.327-2.073-1.552-2.85-2.073-1.294-3.624v-.521l-.78-1.552-.257-2.332-1.297-1.292-2.332-2.594-.777-3.363.258-3.886-1.035-3.109-.519-2.072-.519-3.624.78-5.177-.78-1.811 1.555-1.813 8.55.255 12.955-.255 17.877-.781 7.515-1.036 5.44-1.553 7.253-4.398 8.551-6.219 4.145-3.884 13.214-5.697 5.7-3.363 9.07-5.44 7.771-3.884 8.81-5.434 6.474-2.594 7.257-4.4 5.701-3.11 9.065-7.509 5.181-2.073 6.736-.513 12.178-.524 15.287 3.371 10.363 3.108 14.51 1.293 11.916 3.369 5.441 3.363 11.92 3.885 5.698 2.588.26.521-1.295 7.248 3.108 1.295-.258 1.037 4.403 3.364v1.552l4.406 3.631 1.814-.781 2.331 1.557 1.037-.52 3.626 1.295 5.181-1.295 1.814-1.037 3.37-.516 3.368-2.847 10.881 2.326-1.036 9.067 2.85 4.92 1.037 8.801 2.591 1.817.774 5.177 1.816 3.884-.518 4.66 2.33 6.474-1.293 6.994-1.555 5.697-6.216 4.14-5.186 4.665-7.51 2.328-5.703 3.37-3.108 4.66-7.254 4.661-2.072 2.588-4.406 5.697-8.81 4.4-3.886 2.593-1.81 1.551-5.445.261-8.028 2.073-4.926 2.588-3.108 2.848-10.622 2.073-5.959 1.551-6.734.516-5.705 3.37-8.289 2.327-8.03 2.333-3.627 1.553-5.96 2.332-6.478 1.037-3.109.775-5.7 2.073-2.85 2.848-6.217 1.812-1.814 3.11.518 1.812zm187.691-95.903c0 5.713-.72 11.415-2.226 17.21-1.506 5.795-3.803 11.692-6.999 17.633-2.675 4.964-5.979 9.961-9.965 14.915-3.982 4.953-8.633 9.853-13.94 14.578-8.176 7.282-17.97 14.189-29.067 20.271-11.099 6.087-23.539 11.367-36.86 15.534-13.837 4.329-28.654 7.466-43.852 9.223-15.437 1.791-31.277 2.149-46.87 1.075-15.59-1.075-30.943-3.592-45.436-7.4-14.492-3.81-28.112-8.92-40.347-14.998-12.233-6.081-23.05-13.135-32.147-20.704-9.096-7.563-16.438-15.626-22.023-23.726-4.249-6.159-7.483-12.322-9.81-18.399-2.328-6.07-3.762-12.05-4.405-17.975a66.774 66.774 0 0 1 .436-17.752c.94-5.941 2.68-11.954 5.35-18.062 2.67-6.11 6.272-12.313 10.882-18.442 3.865-5.145 8.46-10.256 13.775-15.213 5.315-4.961 11.331-9.756 18.013-14.254 6.682-4.504 14.026-8.719 21.92-12.527 12.45-6.018 26.284-11.008 40.96-14.694 14.67-3.679 30.173-6.029 45.886-6.929 15.71-.895 31.64-.33 47.095 1.668 15.458 1.994 30.477 5.422 44.425 10.07 11.177 3.725 21.68 8.229 31.227 13.328 7.958 4.25 15.28 8.914 21.83 13.852 6.55 4.933 12.341 10.146 17.33 15.48 4.993 5.328 9.166 10.77 12.575 16.213 3.403 5.442 6.043 10.882 7.976 16.227 1.938 5.35 3.177 10.612 3.798 15.855.314 2.652.47 5.299.47 7.943"
      fill-rule="evenodd"/>
    <path
      d="M463.212 452.897c0 5.71-.72 11.413-2.226 17.209-1.505 5.796-3.803 11.695-7 17.632-2.672 4.97-5.978 9.965-9.963 14.918-3.983 4.953-8.636 9.853-13.94 14.576-8.177 7.282-17.97 14.188-29.068 20.272-11.1 6.084-23.538 11.367-36.86 15.535-13.835 4.329-28.654 7.465-43.854 9.224a256.255 256.255 0 0 1-46.868 1.074c-15.591-1.073-30.943-3.595-45.434-7.403-14.492-3.808-28.114-8.919-40.348-14.997-12.233-6.079-23.052-13.135-32.148-20.7-9.095-7.565-16.436-15.629-22.022-23.728-4.25-6.158-7.482-12.325-9.81-18.398-2.33-6.074-3.764-12.051-4.406-17.975a66.79 66.79 0 0 1 .436-17.754c.939-5.941 2.68-11.955 5.35-18.064 2.67-6.106 6.27-12.311 10.88-18.442 3.866-5.143 8.464-10.254 13.779-15.213 5.313-4.961 11.329-9.752 18.01-14.254 6.683-4.5 14.027-8.715 21.922-12.529 12.447-6.014 26.284-11.006 40.956-14.686 14.674-3.683 30.177-6.035 45.888-6.929 15.71-.895 31.64-.332 47.096 1.666 15.458 1.996 30.48 5.42 44.425 10.068 11.176 3.723 21.683 8.231 31.228 13.328 7.957 4.248 15.278 8.916 21.83 13.852 6.549 4.933 12.34 10.146 17.33 15.478 4.99 5.33 9.166 10.772 12.572 16.215 3.408 5.443 6.045 10.882 7.98 16.23 1.936 5.345 3.175 10.612 3.796 15.854.314 2.653.469 5.297.469 7.941"
      fill="none" stroke="#000" stroke-width=".709" stroke-linecap="round" stroke-linejoin="round"/>
    <text style="-inkscape-font-specification:ArialRoundedMTBold" transform="scale(1 -1) rotate(26.92 779.586 178.921)" font-weight="400" font-size="40.852"
          font-family="Arial Rounded MT Bold">
      <tspan y="0" x="0">V</tspan>
    </text>
    <text style="-inkscape-font-specification:ArialRoundedMTBold" transform="scale(1 -1) rotate(16.302 1215.848 516.48)" font-weight="400" font-size="40.852"
          font-family="Arial Rounded MT Bold">
      <tspan y="0" x="0">A</tspan>
    </text>
    <text style="-inkscape-font-specification:ArialRoundedMTBold" transform="scale(1 -1) rotate(9.34 2012.28 1232.772)" font-weight="400" font-size="40.852"
          font-family="Arial Rounded MT Bold">
      <tspan y="0" x="0">L</tspan>
    </text>
    <text style="-inkscape-font-specification:ArialRoundedMTBold" transform="scale(1 -1) rotate(4.803 3772.384 2905.169)" font-weight="400" font-size="40.852"
          font-family="Arial Rounded MT Bold">
      <tspan y="0" x="0">L</tspan>
    </text>
    <text style="-inkscape-font-specification:ArialRoundedMTBold" transform="scale(1 -1) rotate(-5.365 -3086.919 -3202.443)" font-weight="400"
          font-size="40.852" font-family="Arial Rounded MT Bold">
      <tspan y="0" x="0">O</tspan>
    </text>
    <text style="-inkscape-font-specification:ArialRoundedMTBold" transform="scale(1 -1) rotate(-10.675 -1473.8 -1884.984)" font-weight="400" font-size="40.852"
          font-family="Arial Rounded MT Bold">
      <tspan y="0" x="0">R</tspan>
    </text>
    <text style="-inkscape-font-specification:ArialRoundedMTBold" transform="scale(1 -1) rotate(-17.732 -819.132 -1308.466)" font-weight="400"
          font-size="40.852" font-family="Arial Rounded MT Bold">
      <tspan y="0" x="0">B</tspan>
    </text>
    <text style="-inkscape-font-specification:ArialRoundedMTBold" transform="scale(1 -1) rotate(-25.616 -512.045 -1027.865)" font-weight="400"
          font-size="40.852" font-family="Arial Rounded MT Bold">
      <tspan y="0" x="0">E</tspan>
    </text>
    <text style="-inkscape-font-specification:ArialRoundedMTBold" transform="scale(1 -1) rotate(-11.475 -2710.128 -1443.116)" font-weight="400"
          font-size="40.852" font-family="Arial Rounded MT Bold">
      <tspan y="0" x="0">4</tspan>
    </text>
    <text style="-inkscape-font-specification:ArialRoundedMTBold" transform="scale(1 -1) rotate(-7.29 -4388.677 -2318.998)" font-weight="400" font-size="40.852"
          font-family="Arial Rounded MT Bold">
      <tspan y="0" x="0">-</tspan>
    </text>
    <text style="-inkscape-font-specification:ArialRoundedMTBold" transform="scale(1 -1) rotate(-3.96 -8169.483 -4277.246)" font-weight="400" font-size="40.852"
          font-family="Arial Rounded MT Bold">
      <tspan y="0" x="0">5</tspan>
    </text>
    <text style="-inkscape-font-specification:ArialRoundedMTBold" transform="scale(1 -1) rotate(8.126 4202.502 1892.68)" font-weight="400" font-size="40.852"
          font-family="Arial Rounded MT Bold">
      <tspan y="0" x="0">M</tspan>
    </text>
    <text style="-inkscape-font-specification:ArialRoundedMTBold" transform="scale(1 -1) rotate(14.653 2387.782 1060.527)" font-weight="400" font-size="40.852"
          font-family="Arial Rounded MT Bold">
      <tspan y="0" x="0">A</tspan>
    </text>
    <text style="-inkscape-font-specification:ArialRoundedMTBold" transform="scale(1 -1) rotate(24.127 1499.604 602.409)" font-weight="400" font-size="40.852"
          font-family="Arial Rounded MT Bold">
      <tspan y="0" x="0">I</tspan>
    </text>
    <text style="-inkscape-font-specification:ArialRoundedMTBold" transform="scale(1 -1) rotate(30.896 1193.891 456.035)" font-weight="400" font-size="40.852"
          font-family="Arial Rounded MT Bold">
      <tspan y="0" x="0">2</tspan>
    </text>
    <text style="-inkscape-font-specification:ArialRoundedMTBold" transform="scale(1 -1) rotate(44.007 875.061 262.542)" font-weight="400" font-size="40.852"
          font-family="Arial Rounded MT Bold">
      <tspan y="0" x="0">0</tspan>
    </text>
    <text style="-inkscape-font-specification:ArialRoundedMTBold" transform="scale(1 -1) rotate(-59.205 -366.848 -338.75)" font-weight="400" font-size="40.852"
          font-family="Arial Rounded MT Bold">
      <tspan y="0" x="0">A</tspan>
    </text>
    <text style="-inkscape-font-specification:ArialRoundedMTBold" transform="scale(1 -1) rotate(71.181 579.278 74.168)" font-weight="400" font-size="40.852"
          font-family="Arial Rounded MT Bold">
      <tspan y="0" x="0">9</tspan>
    </text>
    <text style="-inkscape-font-specification:ArialRoundedMTBold" transform="scale(1 -1) rotate(-45.115 -546.938 -404.926)" font-weight="400" font-size="40.852"
          font-family="Arial Rounded MT Bold">
      <tspan y="0" x="0">D</tspan>
    </text>
    <text style="-inkscape-font-specification:ArialRoundedMTBold" transform="scale(1 -1) rotate(-28.915 -966.882 -595.006)" font-weight="400" font-size="40.852"
          font-family="Arial Rounded MT Bold">
      <tspan y="0" x="0">D</tspan>
    </text>
    <text style="-inkscape-font-specification:ArialRoundedMTBold" transform="scale(1 -1) rotate(-30.799 -888.304 -538.812)" font-weight="400" font-size="40.852"
          font-family="Arial Rounded MT Bold">
      <tspan y="0" x="0">/</tspan>
    </text>
    <text style="-inkscape-font-specification:ArialRoundedMTBold" transform="scale(1 -1) rotate(-18.752 -1588.213 -865.84)" font-weight="400" font-size="40.852"
          font-family="Arial Rounded MT Bold">
      <tspan y="0" x="0">V</tspan>
    </text>
    <text style="-inkscape-font-specification:ArialRoundedMTBold" transform="scale(1 -1) rotate(54.945 721.699 171.663)" font-weight="400" font-size="40.852"
          font-family="Arial Rounded MT Bold">
      <tspan y="0" x="0">1</tspan>
    </text>
    <path
      d="M275.522 548.8h-8.031l-4.923-2.072-3.11-1.554h-2.592l-3.107-1.037-1.814-1.035-2.59.518h-1.814l-3.11-1.036-2.59-.517-1.814-2.33-2.591-1.295-2.072-1.814-2.333-2.848-5.44-2.07-2.85-1.296-1.814-2.33-4.144-2.073-3.37-1.294-2.331-1.554-3.885-1.036-2.333-2.848-3.886-1.813-2.85-1.036-3.11-2.589-2.331-1.036-3.628-.777-1.295-1.035-1.555-1.036-3.367-1.554-3.887-1.812-2.85-.519-2.073-1.553-1.036-2.073-3.368-1.294-2.85-3.883-1.814-.778-2.59-3.107-2.073-1.036-1.296-2.849-1.036-2.589-1.814-3.367-2.85-2.07-1.554-1.555-.777-2.33-2.073-1.554-2.85-2.07-1.295-3.627v-.517l-.778-1.554-.26-2.332-1.294-1.295-2.332-2.589-.777-3.366.259-3.884-1.036-3.107-.52-2.073-.517-3.624.778-5.178-.778-1.813 1.556-1.813 8.549.26 12.955-.26 17.876-.777 7.514-1.036 5.44-1.553 7.255-4.403 8.55-6.216 4.145-3.882 13.213-5.699 5.7-3.364 9.069-5.44 7.772-3.884 8.809-5.435 6.477-2.592 7.254-4.4 5.7-3.11 9.069-7.51 5.18-2.072 6.738-.518 12.176-.515 15.287 3.365 10.363 3.11 14.509 1.292 11.919 3.368 5.438 3.365 11.92 3.885 5.7 2.59.259.517-1.296 7.25 3.109 1.293-.258 1.04 4.403 3.362v1.557l4.405 3.625 1.814-.779 2.332 1.556 1.037-.517 3.626 1.293 5.183-1.293 1.812-1.039 3.368-.516 3.369-2.848 10.88 2.33-1.034 9.063 2.85 4.921 1.035 8.803 2.59 1.813.779 5.178 1.813 3.885-.517 4.661 2.33 6.474-1.296 6.992-1.554 5.697-6.217 4.143-5.183 4.66-7.512 2.331-5.701 3.367-3.108 4.66-7.254 4.662-2.074 2.59-4.405 5.696-8.81 4.403-3.885 2.59-1.814 1.552-5.441.26-8.03 2.07-4.924 2.59-3.108 2.85-10.622 2.071-5.96 1.553-6.737.518-5.7 3.366-8.29 2.331-8.031 2.331-3.627 1.553-5.96 2.331-6.478 1.035-3.108.778-5.7 2.072-2.85 2.847-6.218 1.813-1.812 3.108.516 1.813-3.109.776"
      fill="none" stroke="#000" stroke-width=".709" stroke-linecap="round" stroke-linejoin="round"/>
    <path
      d="M341.846 380.812l-.278 1.654-.218 1.428-.056.443-.277.934v.939l-.438 1.157-.058.715-.056.986-.438 1.049.219 1.1-.331.877.112.832-.165.934.053.824-.165 1.38-.384 1.484v.496l-.054 1.045-.332.772v.992l-.278.607-.218.934-.22.332-.221-.055-.33-.77-.11-.384-.168-.664.114-.275-.167-.332.053-.327v-.275l.058-.385.11-.662-.168-.33-.438-.55v-.331l-.498.385-.384.88-.165.608-.053.602-.28.83.222.6-.273.94.052.44.054 1.264.11.5.498.932.332 2.427.716 1.155-.058 1.32.279.936.439.88.66.94.332 1.646.332.664.657.877.995.61 1.928.769.659.385-.11.44-.218.332-.057.937-.384.549-.112.717-.992.385.274 1.269.994 1.487 2.037.548 1.49-.331.88-.933.275-.994v-1.763l.056-1.21-.056-.716.22-.385.662-.717 1.213-.547 1.102-1.156.715-1.818.166-2.641.275-1.547.276-1.65.054-1.154-.165-1.38.496-2.642-.054-2.148.054-.547v-1.272l-.331-1.646-.054-.664-.443-1.156-.715-.331-.386-.222-.108-.604.053-.49.385-.61.77-.167 1.16-1.21.274-1.265.165-1.156 1.213-2.094.715-1.648.496-.885.827-.934.496-.937.276-.332-.11-.494-.662-.276-1.762-.718h-.331l-1.432 1.71-.881 2.48-1.652 1.871-.444 1.041-1.32.555-.496 1.047-.936.33-.608 1.211-.493 1.431-.112.987-.384.94-.112.109-.606-.277-.111-1.043-.44-.66-.051-.827.163-1.1-.222-1.488-.054-1.102-.111-.83-.166-1.318.11-2.092.112-1.32.274-1.486.22-.994-1.376-.163-1.542-.058z"
      fill-rule="evenodd"/>
    <path
      d="M341.843 380.812l-.273 1.652-.22 1.432-.056.439-.277.936v.937l-.441 1.157-.055.715-.054.99-.44 1.047.219 1.1-.331.884.112.824-.165.936.053.826-.165 1.377-.385 1.488v.492l-.055 1.049-.33.77v.99l-.276.605-.22.938-.22.33-.221-.055-.33-.771-.11-.385-.165-.662.109-.273-.165-.332.056-.331v-.275l.055-.385.11-.66-.165-.33-.441-.551v-.332l-.498.387-.385.88-.165.605-.055.607-.276.826.22.605-.272.938.052.439.056 1.266.11.498.496.934.332 2.423.713 1.155-.052 1.322.274.936.44.88.662.936.33 1.654.33.66.662.88.99.607 1.93.77.66.386-.11.44-.22.331-.055.935-.385.55-.111.717-.992.385.277 1.267.99 1.488 2.04.549 1.488-.33.88-.936.275-.992v-1.761l.056-1.211-.056-.718.22-.385.662-.715 1.213-.55 1.102-1.156.715-1.817.165-2.645.276-1.54.276-1.652.055-1.154-.166-1.38.496-2.642-.056-2.146.056-.551v-1.266l-.33-1.654-.055-.66-.441-1.156-.717-.331-.386-.218-.108-.609.052-.496.388-.605.77-.164 1.158-1.21.274-1.269.165-1.154 1.213-2.094.718-1.652.493-.88.827-.936.496-.935.276-.33-.111-.496-.661-.276-1.762-.715h-.331l-1.432 1.707-.881 2.477-1.652 1.87-.442 1.048-1.322.55-.496 1.048-.938.33-.606 1.21-.493 1.432-.112.992-.384.936-.113.109-.605-.275-.11-1.045-.44-.662-.055-.826.165-1.1-.221-1.486-.054-1.104-.111-.826-.165-1.32.109-2.092.11-1.322.276-1.487.22-.992-1.376-.164-1.542-.054-.057.605"
      fill="none" stroke="#000" stroke-width=".709" stroke-linecap="round" stroke-linejoin="round"/>
    <path
      d="M337.11 412.048l-.387-1.322.771-1.485.276.272-.33 1.93-.33.605M350.107 397.604h.497l-.167 2.148-.22 1.211-.275.221-.44-.66v-1.268l.274-1.485.331-.166"
      fill="none" stroke="#000" stroke-width=".709" stroke-linecap="round" stroke-linejoin="round"/>
    <path
      d="M208.886 521.249v-7.033l-.878-.291 1.467-7.033v-20.796l-1.175-11.713-2.637-8.498-.586-4.102.293-1.757-2.637-11.127-.878-9.67-.586-8.79-.294-1.464-.588-4.682 10.846-3.81-1.465 14.058 1.172 15.235 2.637 9.957 1.758 6.739v4.101l.292 8.784.293 9.375.587 9.083-.88 7.613v6.738l.293 5.567-.471 3.326.108 5.268-6.424-3.348z"
      fill-rule="evenodd"/>
    <path
      d="M208.887 521.248v-7.03l-.88-.293 1.467-7.031v-20.797l-1.174-11.718-2.637-8.494-.586-4.101.293-1.757-2.637-11.131-.88-9.667-.586-8.787-.292-1.465-.587-4.688 10.845-3.808-1.466 14.062 1.172 15.231 2.638 9.96 1.758 6.736v4.102l.293 8.787.293 9.373.587 9.082-.88 7.616v6.737l.293 5.566-.473 3.326.109 5.269-6.424-3.349-.246-1.731"
      fill="none" stroke="#000" stroke-width=".709" stroke-linecap="round" stroke-linejoin="round"/>
    <path
      d="M361.615 518.83l-.106-6.007.253-6.582-3.714 6.077-4.642 4.384-7.849 5.4-.59-.337 2.53-1.937 2.62-1.86-4.475-.082h-1.014l-2.364.927-4.977.167-1.446-.58-1.875-1.556-1.135-1.476-.79-.528.025-.026.924.472 1.108 1.373 1.347 1.161 1.608.846 1.583.05 2.085-.023 1.927-.212.635-.292.497-.26-.077-.185-.606-.266-.818-.315-1.398-.423-1.37-.635-.953-.737-1.295-.95-.63-.84-.714-.952-1.769-1.425-1.792-1.319-1.346-1.29-.58-1.32 1.053 1.395 1.901 1.612 2.192 1.714 1.318 1.345 1.24 1.345 1.926 1.265 1.557.608 1.424.368.843.472.502.294 1.636-.082 3.09.054 1.292-.054.792-.314 1-.896 2.534-2.007 2.35-2.268 1.66-2.48 1.953-3.45.767-3.299-.16-.45-.368.107-.817 1.845-2.14 2.638-1.45 1.817-2.217 1.242-1.663.288-1.319.163-.475.575-.368.374-.079.87.106.263-.184-.422.022-.688.398-.712.183-.314h-.55l-1.56.238-1.056.021-1.555-.575-1.162-.633-.843-.506-1.24-.943-.765-.69-.449-.92-.159-1.108.554 1.583.343.527 1.637 1.264 1.872 1.053 1.846.743 1.322-.082h.21l-.422-.71-.344-1.16-.156-.848-.476-.868-.554-.662-1.055-.764.74.265.948.792.634.765.13.793.292 1.236.395.711.37.184 1.505.028 2.506-.342 1.637-.71 1.184-1.03 1.691-2.27 1.58-2.132.848-1.878.776-2.142.165-1.417-3.427 2.34-2.554.976-2.882 1.14-5.058 1.85-3.045.11-3.369-.599-3.643-1.958-2.61-1.357-3.916-1.579-5.327-3.749-2.012-.434 1.944.292 1.518.951 2.62 1.855 1.378.955 1.47.602 2.227.868-.637-1.15-1.468-1.182-.866-1.73-1.275-1.77-2.227-2.6-1.08-1.574-1.166-.845 1.292.69 1.698 2.294 1.592 1.981 1.096 1.431 1.166 1.927.814.777 1.045.867.53 1.08 3.076 1.59 3.042 1.562 2.96.56 3.01-.089 3.675-1.339 1.817-.84-2.488-.109-2.983-.973-3.679-2.207-2.035-1.254-3.309-1.23-2.833-.674h-2.034l-1.13-.238-.753.102-2.09-.08-.836.124-2.03.542-2.574.923 2.176-.814 2.28-.797-.669-.5-3.347-1.612-3.284-1.714-2.739-1.34-1.99-1.004.064-.06 2.51 1.026 3.368 1.693 3.513 1.882 2.03.874.922.461 1.38.087 1.108.016.563-.103.776.103 1.193.147 1.652.065 1.255.25.837-.06 2.302 1.063 1.757.587.792.293 2.45 1.65 3.118 1.61 1.823.521 3.097.271 4.732-1.573 2.718-2.067 1.412-1.736.272-4.298v-.108l-4.402 5.816-2.176 1.904-1.903.978-4.946 1.843-5.329 1.31 3.152-1.255 5.818-1.845.652-.434-1.087-.982-3.1-1.41-2.663-3.316-3.48-2.989-3.589-1.357-4.674-.813-5.549-1.634 3.603.901 2.13.57 2.042.342 2.64.51 2.556.966 1.791.992 1.758 1.416 1.503 1.644 1.561 1.877.967.766 1.335.624 1.164.14 1.275 1.135h.823l.881-.597.484-1.019 1.163-.94 1.815-2.099 2.473-3.06 1.051-2.415.197-3.945.118-1.61-1.738.108-3.264-1.086-2.01-1.74-1.143-1.14 3.098 2.061 2.067.82 2.556.543.49-.544.053-3.043-.109-1.96-.054-.486-1.957 2.282-2.012 1.791-1.468 1.69-3.208 2.167-4.458 1.852-3.098.704-5.386 1.633 1.415-.656 4.35-1.41 4.73-1.574 3.425-1.958 3.156-2.61 2.064-2.449 1.088-1.409.543-.922-2.99 1.737-4.456 1.578-5.004 1.791-4.298.928-6.086-.163-3.428 1.14-5.002-.219-3.313-1.362-3.699-.162-3.588.271 4.296-.597 2.661.11 2.231.487 2.121.873 3.644.164 2.827-.542.163-.332-6.254-2.332-4.512-3.642-4.73-1.524-3.48-1.953 3.534 1.573 3.534 1.2 2.011.65 2.88 2.442 2.231 1.254 4.677 1.681 3.207.38 5.111.054 5.056-1.302.98-.435-3.807-.162-2.772-.868-2.447-1.09-1.63-1.465-2.556-1.959-2.447-2.062-3.644-3.478 2.338 1.737 3.317 2.88 3.262 2.393 1.74 1.411 2.067 1.031 2.881 1.035 3.588.055 2.447-.488 3.152-1.09 2.122-1.792 2.718-1.958.707-2.17v-1.307l-1.195 1.253-2.066 2.495-1.468 2.448-.273-.11 1.306-2.717 1.684-2.23 1.847-1.737h-.269l-2.937 1.194-3.969.164-3.262-.109-2.01-.596-1.879.081-1.694-.332-1.344-.764-1.448-.82-1.64-.764-2.767-1.016-1.887-.515-2.6-1.97-1.314-.988-1.917-1.665-1.283-1.888-1.644-1.998-1.997-2.815 1.724 1.97 1.97 2.431 1.946 2.571 2.157 1.835 2.22 1.692 2.024.88 3.282 1.117 2.958 1.286.682.357-1.668-2.355-3.01-3.553-1.068-1.205-1.15-1.448-.492-1.097-.519-1.583 1.421 2.788 2.71 3.147 2.3 2.627 1.86 2.625.41.712 1.285.297.44.082.08-1.286-1.15-2.322-1.039-2.707-1.834-3.228-.655-3.256 1.067 3.5 2.272 4.16 1.147 2.818.466 1.035.083 1.421h1.37l1.284-.026.794.358 3.174.135 2.957-.054 2.186-.656 1.78-1.123.383-1.423-.136-2.733.257-4.097.31-6.814.93-4.227-6.818 2.576-4.232.722-5.68-1.236-2.888-3.099-7.745-7.118 5.368 4.336 4.544 3.505 3.612 2.272 3.717.722 4.028-1.238 3.924-1.963 1.548-1.856.622-2.788.206-2.99.104-3.819v-1.03l-1.447 2.885-2.582 1.14-4.13 2.164-5.783.412-7.958 1.692 4.2-1.198 3.54-.84.12-.96-1.14-2.156-4.86-2.643-2.7-3.656-1.56-3.537 2.882 4.618 1.857 2.636 4.02 2.041 1.321 1.14 1.26 2.516 4.86-.836 2.761-1.68 2.757-2.519 2.762-4.08.062-5.817v-3.24l-3.002 2.161-2.28 1.02-3.419.24-2.159-.538-.664-.483 3.422.662 4.2-1.08 2.821-1.618 1.62-2.219-.063-5.16-.574-7.639.328-10.016.738-6.982 1.318-5.914 4.434 1.893-1.724 8.541-.495 10.511-.08 8.62-.247 10.266.412 5.663 1.875 4.394.782 6.907 1.562 5.601 2.218 2.343 4.691 1.828-1.88.006-3.75-1.937-1.755-2.127-.938-3.25-.878-3.749-1-3.505-.685-2.81-.503-.439-.062 5.316 1.19 8.312.751 6.565.248 3.69 2.253 3.63 3.378 6.19 2.13 4.563 1.186 4.563 3.182 4.032 4.302 6.641-2.606-2.735-2.867-4.557-2.608-3.522-1.825-5.078-2.737-5.208-2.214-4.825-2.218-3.125-.91-3.905-.522-7.298-.783-5.73-1.3 10.814-.262 9.766-.784 12.245-.26 6.517.26 11.198v5.215l-.39 4.947-.522 3.908.076 3.424.531 5.136z"
      fill-rule="evenodd"/>
    <path
      d="M361.615 518.831l-.106-6.007.253-6.58-3.714 6.073-4.642 4.387-7.849 5.398-.59-.336 2.533-1.94 2.616-1.857-4.474-.085h-1.014l-2.36.93-4.982.167-1.445-.58-1.875-1.556-1.135-1.477-.79-.528.025-.026.924.474 1.108 1.372 1.346 1.16 1.61.844 1.582.053 2.085-.027 1.927-.21.633-.29.502-.264-.08-.184-.606-.264-.818-.317-1.399-.422-1.373-.634-.949-.737-1.295-.95-.63-.843-.714-.95-1.768-1.423-1.793-1.32-1.348-1.292-.579-1.319 1.054 1.398 1.901 1.61 2.19 1.713 1.32 1.344 1.24 1.345 1.926 1.267 1.557.606 1.424.37.845.474.5.291 1.636-.08 3.09.053 1.291-.053.791-.316 1.002-.897 2.534-2.004 2.348-2.268 1.664-2.48 1.952-3.454.766-3.296-.16-.448-.37.104-.815 1.847-2.138 2.637-1.453 1.82-2.216 1.24-1.66.29-1.322.157-.475.581-.368.37-.08.87.105.263-.184-.42.026-.687.396-.713.186-.316h-.554l-1.559.237-1.055.027-1.556-.58-1.16-.634-.845-.5-1.24-.95-.765-.685-.449-.923-.159-1.108.554 1.582.343.527 1.637 1.266 1.872 1.056 1.847.737 1.32-.079h.211l-.422-.712-.344-1.16-.156-.843-.476-.87-.554-.66-1.055-.766.737.265.951.79.632.765.132.791.292 1.24.395.712.37.185 1.505.027 2.506-.344 1.634-.712 1.19-1.028 1.688-2.268 1.583-2.136.843-1.872.778-2.149.163-1.412-3.425 2.337-2.554.977-2.883 1.141-5.057 1.848-3.045.11-3.372-.599-3.64-1.957-2.61-1.357-3.916-1.577-5.329-3.75-2.01-.434 1.944.29 1.518.954 2.62 1.855 1.378.955 1.47.601 2.227.866-.637-1.15-1.468-1.184-.866-1.732-1.272-1.767-2.23-2.598-1.08-1.574-1.166-.848 1.292.69 1.698 2.297 1.59 1.981 1.097 1.43 1.167 1.93.814.775 1.043.867.531 1.077 3.077 1.591 3.04 1.562 2.963.563 3.008-.086 3.678-1.342 1.817-.842-2.488-.108-2.985-.973-3.679-2.206-2.034-1.254-3.31-1.233-2.835-.67h-2.032l-1.13-.24-.753.104-2.09-.083-.837.125-2.029.543-2.574.921 2.176-.816 2.28-.794-.669-.502-3.347-1.61-3.284-1.714-2.74-1.338-1.989-1.004.064-.063 2.51 1.025 3.368 1.694 3.515 1.882 2.028.877.92.46 1.381.084 1.11.021.564-.105.774.105 1.193.146 1.652.063 1.255.251.837-.063 2.3 1.066 1.758.586.795.293 2.447 1.651 3.117 1.61 1.822.52 3.1.272 4.73-1.576 2.72-2.065 1.412-1.738.272-4.294v-.109l-4.404 5.815-2.174 1.902-1.903.98-4.948 1.847-5.328 1.303 3.153-1.25 5.818-1.848.652-.433-1.087-.979-3.1-1.414-2.663-3.315-3.48-2.988-3.589-1.359-4.675-.814-5.548-1.63 3.603.901 2.13.567 2.042.342 2.642.51 2.555.965 1.79.993 1.758 1.418 1.503 1.646 1.563 1.872.965.766 1.335.624 1.164.142 1.275 1.135h.824l.88-.596.484-1.02 1.163-.937 1.816-2.1 2.472-3.064 1.051-2.412.197-3.944.12-1.613-1.74.11-3.263-1.087-2.012-1.74-1.142-1.14 3.098 2.064 2.067.816 2.556.542.49-.542.053-3.044-.108-1.956-.055-.489-1.957 2.282-2.012 1.792-1.468 1.685-3.207 2.174-4.459 1.848-3.1.706-5.38 1.631 1.411-.653 4.35-1.412 4.731-1.576 3.424-1.956 3.156-2.609 2.065-2.446 1.087-1.412.545-.924-2.992 1.738-4.457 1.577-5.003 1.793-4.295.923-6.089-.163-3.426 1.141-5.002-.217-3.317-1.357-3.697-.164-3.588.272 4.296-.599 2.663.11 2.23.49 2.12.868 3.643.163 2.826-.544.163-.325-6.252-2.336-4.514-3.643-4.73-1.52-3.479-1.957 3.535 1.577 3.534 1.194 2.011.653 2.882 2.445 2.23 1.251 4.676 1.684 3.207.381 5.111.053 5.056-1.304.98-.434-3.807-.165-2.773-.869-2.446-1.087-1.63-1.466-2.558-1.957-2.445-2.064-3.644-3.479 2.338 1.74 3.317 2.88 3.262 2.391 1.74 1.413 2.066 1.032 2.882 1.033 3.588.055 2.447-.49 3.152-1.088 2.122-1.793 2.718-1.956.707-2.173v-1.305l-1.195 1.25-2.066 2.5-1.468 2.446-.273-.11 1.306-2.716 1.684-2.228 1.85-1.74h-.272l-2.937 1.197-3.969.162-3.262-.109-2.012-.596-1.877.08-1.695-.33-1.343-.766-1.448-.82-1.644-.766-2.763-1.012-1.887-.519-2.6-1.969-1.314-.985-1.915-1.669-1.285-1.887-1.644-1.997-1.997-2.817 1.726 1.97 1.97 2.434 1.941 2.571 2.162 1.833 2.218 1.694 2.024.876 3.282 1.122 2.955 1.285.685.355-1.669-2.35-3.009-3.557-1.068-1.204-1.15-1.449-.492-1.094-.519-1.586 1.421 2.79 2.71 3.144 2.3 2.626 1.86 2.625.41.711 1.285.302.44.082.08-1.285-1.148-2.326-1.04-2.707-1.833-3.227-.657-3.255 1.067 3.501 2.272 4.158 1.15 2.816.463 1.04.083 1.421h1.367l1.287-.027.794.356 3.174.136 2.955-.055 2.188-.656 1.78-1.122.383-1.42-.136-2.736.257-4.099.31-6.812.93-4.232-6.815 2.58-4.235.724-5.679-1.238-2.892-3.096-7.745-7.122 5.371 4.335 4.544 3.508 3.612 2.271 3.72.723 4.025-1.239 3.924-1.962 1.548-1.857.622-2.786.206-2.993.102-3.818v-1.03l-1.445 2.887-2.582 1.136-4.13 2.166-5.783.413-7.958 1.693 4.2-1.2 3.54-.839.12-.96-1.14-2.158-4.86-2.64-2.7-3.658-1.558-3.538 2.88 4.62 1.86 2.636 4.017 2.04 1.321 1.14 1.26 2.518 4.86-.839 2.761-1.679 2.758-2.52 2.761-4.077.06-5.817v-3.239l-3 2.16-2.28 1.02-3.419.24-2.162-.54-.659-.48 3.42.66 4.2-1.08 2.821-1.62 1.62-2.219-.063-5.159-.574-7.639.328-10.017.738-6.98 1.315-5.91 4.437 1.886-1.724 8.541-.492 10.51-.083 8.622-.247 10.264.41 5.667 1.877 4.396.782 6.904 1.562 5.601 2.217 2.346 4.694 1.823-1.88.011-3.755-1.938-1.752-2.127-.938-3.25-.875-3.753-1-3.502-.688-2.813-.503-.437-.062 5.314 1.19 8.317.751 6.565.248 3.69 2.253 3.625 3.378 6.19 2.13 4.565 1.186 4.565 3.184 4.028 4.3 6.644-2.606-2.736-2.867-4.56-2.608-3.517-1.825-5.08-2.737-5.21-2.217-4.82-2.215-3.128-.912-3.907-.52-7.296-.783-5.73-1.304 10.81-.26 9.771L366 476.89l-.26 6.513.26 11.202v5.211l-.39 4.951-.522 3.907.076 3.42.531 5.141-4.08 1.596"
      fill="none" stroke="#000" stroke-width=".709" stroke-linecap="round" stroke-linejoin="round"/>
    <path
      d="M408.28 413.163l1.773 8.861-.74 12.256-.443 9.605-.15 7.237-5.023 4.134-1.772 5.317-1.034 5.165-.887 4.434-3.398 4.872 3.84-4.282.89-3.396.885-4.432 1.183-5.317 1.92-2.36 3.396-2.958-.293 6.055-.59 6.946-1.037 7.237v2.214l-7.09 18.902.441.153 7.537-18.317-1.33 10.19-.443 8.127 2.068-.153.444-12.554.74-8.415.886-9.897.887-7.975.147-6.055.591-6.647 4.878 2.806 9.457 2.22-9.014-2.662-4.73-3.102-.148-3.542.591-8.129-.146-5.909 1.032-5.309-.145-1.482.145-3.397.295-1.769z"
      fill-rule="evenodd"/>
    <path
      d="M408.28 413.161l1.773 8.863-.74 12.26-.443 9.6-.148 7.235-5.025 4.136-1.772 5.317-1.036 5.17-.885 4.431-3.4 4.873 3.842-4.284.89-3.397.884-4.429 1.182-5.318 1.921-2.363 3.4-2.953-.296 6.055-.59 6.942-1.037 7.237v2.214l-7.092 18.906.443.147 7.537-18.314-1.33 10.19-.443 8.124 2.068-.147.444-12.555.74-8.418.886-9.896.885-7.975.15-6.055.59-6.647 4.875 2.806 9.46 2.215-9.016-2.658-4.729-3.1-.147-3.547.591-8.123-.148-5.907 1.034-5.319-.147-1.476.147-3.397.295-1.77-5.614 1.327"
      fill="none" stroke="#000" stroke-width=".709" stroke-linecap="round" stroke-linejoin="round"/>
    <path
      d="M259.12 394.075l-.429 9.305 1.391 14.341 1.178 13.695.963 12.516.534 6.848.428 17.443 1.387 26.37 1.76 19.917.584 10.254 1.172 15.23-.293 10.255 2.64.293v-15.82l-2.347-26.364-1.172-28.708.293-21.969-1.465-28.415-1.758-21.087-.293-11.715-.294-4.688z"
      fill-rule="evenodd"/>
    <path
      d="M259.12 394.075l-.429 9.31 1.391 14.336 1.178 13.695.963 12.517.536 6.85.426 17.44 1.387 26.37 1.76 19.917.584 10.253 1.173 15.232-.293 10.252 2.637.293v-15.818l-2.344-26.363-1.173-28.707.294-21.97-1.465-28.412-1.76-21.09-.292-11.718-.294-4.686-4.28 2.3"
      fill="none" stroke="#000" stroke-width=".709" stroke-linecap="round" stroke-linejoin="round"/>
    <path
      d="M275.414 382.692l1.76 21.678 1.174 37.496-.293 38.077.586 27.243-.293 17.578-.882 15.523.59 9.962 2.93-2.638.584-58.585.293-31.345L281.57 424l-1.17-30.172v-9.96l-.294-4.103z"
      fill-rule="evenodd"/>
    <path
      d="M275.416 382.696l1.758 21.674 1.173 37.493-.294 38.082.587 27.242-.293 17.576-.879 15.524.585 9.96 2.932-2.636.585-58.584.293-31.345-.293-33.686-1.172-30.17v-9.96l-.293-4.102-4.689 2.932"
      fill="none" stroke="#000" stroke-width=".709" stroke-linecap="round" stroke-linejoin="round"/>
    <path
      d="M267.08 495.97l3.6 10.256 3.058 3.775 4.321 2.702 9.181 1.797 3.958 4.318 8.281 4.677 4.32 1.438 3.78-2.16 2.24.099 4.371 1.36-3.51-.715-2.22-.5-1.29.283-3.152 1.79-1.216-.21-4.299-1.58-2.148-1.286-3.938-2.148-2.078-1.215-2.292-2.507-1.718-1.216-3.797-.787-4.44-.793-3.295-1.713-2.577-1.362-1.432 2.935-1.005 1.79 1.005-2.934.786-2.008-1.647-3.288-.716-2.436-1.074-2.361-1.218-2.724z"
      fill-rule="evenodd"/>
    <path
      d="M267.08 495.97l3.6 10.255 3.058 3.778 4.32 2.698 9.182 1.799 3.96 4.318 8.28 4.677 4.32 1.44 3.78-2.16 2.24.097 4.368 1.36-3.508-.715-2.22-.502-1.29.287-3.152 1.789-1.217-.214-4.298-1.575-2.148-1.29-3.938-2.146-2.078-1.218-2.29-2.504-1.72-1.217-3.797-.788-4.44-.787-3.295-1.72-2.577-1.36-1.434 2.936-1.003 1.79 1.003-2.935.788-2.004-1.647-3.293-.716-2.434-1.075-2.362-1.217-2.72.16-3.28"
      fill="none" stroke="#000" stroke-width=".709" stroke-linecap="round" stroke-linejoin="round"/>
    <path
      d="M264.013 457.486l-3.66 5.144-6.366 4.47-4.878.674-4.471-1.758-4.605-1.352-2.172-.049-4.188 1.667 4.15-1.824 2.6.04 2.87.855 3.413 1.2.659.195-1.902-1.59-.465-2.599.58-3.255-.657-1.086-1.745-.738 1.708.543 1.008 1.514-.738 3.256.505 2.442 1.978 1.393 1.358.543 3.063-.15 1.707-.393 2.093-1.356 3.959-2.555 1.706-2.795 1.28-2.17.193-2.637-.426-1.047-1.668 1.204-1.356 1.048-.817 1.552.622-1.982 1.279-.852 1.552-1.475.93-.504.427 1.904-.114 3.098z"
      fill-rule="evenodd"/>
    <path
      d="M264.012 457.485l-3.657 5.145-6.368 4.47-4.877.675-4.471-1.759-4.606-1.354-2.17-.048-4.19 1.668 4.15-1.823 2.599.04 2.87.852 3.414 1.201.659.195-1.9-1.589-.467-2.599.583-3.255-.66-1.087-1.745-.737 1.708.544 1.007 1.512-.737 3.257.504 2.442 1.979 1.396 1.357.542 3.065-.156 1.706-.386 2.096-1.358 3.956-2.558 1.706-2.792 1.28-2.17.193-2.637-.426-1.047-1.668 1.202-1.357 1.047-.815 1.55.62-1.976 1.28-.854 1.552-1.473.932-.503.426 1.9-.117 3.101.589-.578M276.693 374.669l-5.97-5.266-10.534-5.964-8.075-3.16-16.855-2.805-14.397-1.756 10.534-2.81 13.695-2.807 14.747-2.104 11.237-.703 8.427-.35 1.052 1.053 1.757 8.422 3.862 6.668 4.565 2.809 9.48 3.859 8.78 2.457-11.237.35-12.992 2.107-5.618 2.105-2.458-2.105"
      fill="none" stroke="#000" stroke-width=".709" stroke-linecap="round" stroke-linejoin="round"/>
    <path
      d="M296.034 425.736l1.134 1.66 1.45 1.556 1.594.993 2.05.777 1.662.142 1.7-.033 1.627-.321 1.17-.565.742-.282-.814 2.474 1.873-1.627.496.955.777.495 1.027.139h.32l-.674 2.442 2.02-1.872.174 1.839.603 2.013 1.026 1.73 1.382 1.527 1.873 1.167 1.488.634 2.227.352 1.133.107-2.51-1.588-1.63-1.666-.46-1.415v-1.097l.425-1.198.708-.782-.035-.103-.779.213-.743-.181-1.064-.815-.67-1.198-.144-.992.036-.815.355-.563.458-.533-.849-.422-.459-.603-.07-.955.247-.776.673-1.026.85-1.025-4.104 2.155-.567-4.63-.779 1.412-1.06 1.134-.709.39-.602.104-.494-.142-.53-.423-.604-.812-.247 1.447-.497.957-.74.492-.958.217-.989-.07-.566-.43-.565-.602-.177-1.057-.533 1.133-.849.989-1.13.563-1.03.179-1.165-.141-1.664-.601-1.274-.672zM226.305 496.231l1.133 1.666 1.453 1.551 1.591.994 2.052.775 1.662.142 1.698-.033 1.63-.321 1.168-.563.74-.282-.81 2.473 1.873-1.628.495.955.778.495 1.03.145h.316l-.673 2.437 2.018-1.872.177 1.84.603 2.013 1.024 1.736 1.381 1.519 1.875 1.166 1.487.636 2.226.358 1.134.102-2.512-1.59-1.627-1.666-.462-1.409v-1.097l.427-1.205.704-.774-.035-.109-.778.211-.74-.174-1.064-.813-.673-1.205-.14-.987.034-.815.355-.569.46-.526-.85-.43-.459-.596-.07-.955.247-.781.672-1.025.85-1.025-4.106 2.159-.565-4.634-.779 1.417-1.06 1.127-.709.391-.602.103-.494-.141-.53-.422-.604-.815-.247 1.449-.496.955-.744.499-.954.211-.99-.069-.567-.424-.565-.602-.18-1.064-.528 1.135-.85.987-1.133.569-1.025.174-1.168-.142-1.662-.601-1.275-.673zM161.414 458.767l1.134 1.666 1.45 1.551 1.591.994 2.054.775 1.662.14 1.698-.032 1.63-.32 1.165-.563.743-.283-.814 2.475 1.877-1.629.495.956.778.493 1.025.146h.321l-.674 2.436 2.017-1.87.178 1.837.6 2.015 1.028 1.735 1.378 1.52 1.877 1.166 1.484.634 2.23.36 1.132.103-2.512-1.59-1.628-1.666-.458-1.412v-1.095l.422-1.205.71-.776-.037-.108-.778.212-.744-.174-1.06-.814-.673-1.204-.14-.989.034-.813.356-.569.458-.527-.849-.428-.46-.597-.072-.954.25-.783.673-1.024.85-1.027-4.106 2.16-.566-4.634-.78 1.417-1.06 1.128-.708.391-.602.103-.497-.14-.529-.425-.602-.813-.247 1.45-.496.953-.744.5-.955.211-.989-.07-.567-.424-.568-.6-.177-1.066-.528 1.136-.849.986-1.134.571-1.026.173-1.166-.14-1.667-.604-1.27-.673zM286.16 514.033l10.168.222 4.2-2.653 4.423-8.171-4.204 5.74-3.093 2.877-3.536 1.323-7.073-.444-4.864.667z"
      fill-rule="evenodd"/>
    <path d="M286.16 514.033l10.168.222 4.2-2.652 4.42-8.174-4.198 5.744-3.096 2.872-3.536 1.326-7.074-.443-4.863.664 3.98.44" fill="none" stroke="#000"
          stroke-width=".709" stroke-linecap="round" stroke-linejoin="round"/>
    <path
      d="M260.078 411.526l.218 5.963-1.765 7.954-2.654 4.86-2.872 2.65-6.192 1.99-8.398-.223-3.757-.885 7.736.223 5.084-.223-2.21-1.324-3.538-1.992-3.095-3.307-2.208-4.202-.885-1.988 3.315 4.643 4.42 4.416 4.421 2.871h1.108l3.534-.886 2.43-2.868 2.653-6.188 2.212-6.408.884-2.867z"
      fill-rule="evenodd"/>
    <path
      d="M260.078 411.522l.22 5.965-1.768 7.953-2.653 4.861-2.874 2.651-6.189 1.99-8.399-.222-3.758-.885 7.736.223 5.085-.223-2.212-1.324-3.535-1.989-3.096-3.314-2.209-4.198-.885-1.988 3.316 4.64 4.421 4.42 4.42 2.87h1.106l3.536-.884 2.432-2.87 2.653-6.188 2.21-6.408.884-2.869-.44-2.21"
      fill="none" stroke="#000" stroke-width=".709" stroke-linecap="round" stroke-linejoin="round"/>
    <path d="M266.707 437.375l2.875 2.43 5.526 1.985 7.738.222 3.535-1.105-1.988 1.769h-8.623l-5.525-1.547-4.642-3.094z" fill-rule="evenodd"/>
    <path d="M266.708 437.372l2.874 2.43 5.525 1.987 7.738.221 3.536-1.104-1.989 1.767H275.771l-5.526-1.546-4.641-3.09 1.104-.665" fill="none" stroke="#000"
          stroke-width=".709" stroke-linecap="round" stroke-linejoin="round"/>
    <text style="-inkscape-font-specification:ArialRoundedMTBold" transform="scale(1 -1) rotate(78.311 308.886 -157.747)" font-weight="400" font-size="25.978"
          font-family="Arial Rounded MT Bold">
      <tspan y="0" x="0">S</tspan>
    </text>
    <text style="-inkscape-font-specification:ArialRoundedMTBold" transform="scale(1 -1) rotate(69.386 345.03 -132.333)" font-weight="400" font-size="25.978"
          font-family="Arial Rounded MT Bold">
      <tspan y="0" x="0">S</tspan>
    </text>
    <text style="-inkscape-font-specification:ArialRoundedMTBold" transform="scale(1 -1) rotate(58.799 401.335 -96.164)" font-weight="400" font-size="25.978"
          font-family="Arial Rounded MT Bold">
      <tspan y="0" x="0">S</tspan>
    </text>
    <text style="-inkscape-font-specification:ArialRoundedMTBold" transform="scale(1 -1) rotate(-50.71 -163.35 -671.588)" font-weight="400" font-size="25.978"
          font-family="Arial Rounded MT Bold">
      <tspan y="0" x="0">S</tspan>
    </text>
    <text style="-inkscape-font-specification:ArialRoundedMTBold" transform="scale(1 -1) rotate(-58.56 -109.563 -615.645)" font-weight="400" font-size="25.978"
          font-family="Arial Rounded MT Bold">
      <tspan y="0" x="0">G</tspan>
    </text>
    <text style="-inkscape-font-specification:ArialRoundedMTBold" transform="scale(1 -1) rotate(-66.382 -70.23 -574.616)" font-weight="400" font-size="25.978"
          font-family="Arial Rounded MT Bold">
      <tspan y="0" x="0">H</tspan>
    </text>
    <path
      d="M162.505 420.53l13.704-1.207 12.091-4.431 14.51-9.668 18.138-11.682 9.673-8.461 14.912-6.445 7.66-2.82-15.317 3.222-11.689 2.82-12.494 5.237-3.628 1.209 5.643-7.654 8.464-4.834 12.092-5.237-22.57 6.446-8.869 5.64-7.657 7.653-8.868 11.28-5.24 6.042-7.255 3.627-10.882 5.64-12.495 3.222 10.077.4"
      fill="none" stroke="#000" stroke-width=".709" stroke-linecap="round" stroke-linejoin="round"/>
    <path
      d="M280.02 467.214l4.354 6.381 4.06 3.191 4.064.868 2.612.291 2.031-.872 3.482-4.059 2.903-1.742 4.354-.868 4.06-1.74-8.124 1.74-4.936 2.61-.87-1.742-.58-2.609 1.45-3.77 2.613-3.772 3.193-1.448-3.337 1.08-2.34 2.652-1.768 2.85-.57 2.842.57 2.654.504 1.71-.252 1.132-.822 1.58-1.517.76-4.555-.316-3.857-2.149-1.707-2.403-2.34-3.093-1.328-2.338z"
      fill-rule="evenodd"/>
    <path
      d="M280.02 467.212l4.354 6.382 4.061 3.19 4.063.87 2.611.29 2.031-.87 3.483-4.062 2.902-1.74 4.354-.87 4.061-1.74-8.124 1.74-4.934 2.61-.87-1.74-.58-2.61 1.45-3.77 2.611-3.77 3.193-1.451-3.337 1.083-2.34 2.655-1.77 2.843-.569 2.845.568 2.655.506 1.706-.252 1.137-.822 1.58-1.517.759-4.554-.316-3.857-2.15-1.707-2.401-2.34-3.097-1.327-2.338-1.349.58"
      fill="none" stroke="#000" stroke-width=".709" stroke-linecap="round" stroke-linejoin="round"/>
    <path d="M280.02 397.312l2.9 3.482 5.805 4.352 2.901 1.154 5.226 1.162-11.027-2.61-6.966-4.64z" fill-rule="evenodd"/>
    <path
      d="M280.02 397.312l2.9 3.48 5.805 4.35 2.901 1.16 5.226 1.162-11.028-2.611-6.965-4.641 1.16-2.9M309.038 353.208l16.252 1.16 20.314 5.221 29.891 8.992 17.991 11.313 10.157 10.73 3.194 5.221-8.127-6.381-22.634-12.762-18.864-5.221-20.024-4.64-19.734-2.612 13.06-2.9-21.476-8.121"
      fill="none" stroke="#000" stroke-width=".709" stroke-linecap="round" stroke-linejoin="round"/>
  </g>
</svg>