<?xml version="1.0" encoding="UTF-8" standalone="no"?>
<svg
   xmlns:dc="http://purl.org/dc/elements/1.1/"
   xmlns:cc="http://creativecommons.org/ns#"
   xmlns:rdf="http://www.w3.org/1999/02/22-rdf-syntax-ns#"
   xmlns:svg="http://www.w3.org/2000/svg"
   xmlns="http://www.w3.org/2000/svg"
   xmlns:sodipodi="http://sodipodi.sourceforge.net/DTD/sodipodi-0.dtd"
   xmlns:inkscape="http://www.inkscape.org/namespaces/inkscape"
   viewBox="0 0 595.00 435.00"
   height="200.00"
   width="595.00"
   xml:space="preserve"
   id="svg2"
   version="1.1"
   sodipodi:docname="logo.svg"
   inkscape:version="0.92.3 (2405546, 2018-03-11)"><sodipodi:namedview
     pagecolor="#ffffff"
     bordercolor="#666666"
     borderopacity="1"
     objecttolerance="10"
     gridtolerance="10"
     guidetolerance="10"
     inkscape:pageopacity="0"
     inkscape:pageshadow="2"
     inkscape:window-width="3840"
     inkscape:window-height="2040"
     id="namedview148"
     showgrid="false"
     inkscape:zoom="1.189304"
     inkscape:cx="-53.609319"
     inkscape:cy="561.26001"
     inkscape:window-x="0"
     inkscape:window-y="0"
     inkscape:window-maximized="1"
     inkscape:current-layer="svg2" /><metadata
     id="metadata8"><rdf:RDF><cc:Work
         rdf:about=""><dc:format>image/svg+xml</dc:format><dc:type
           rdf:resource="http://purl.org/dc/dcmitype/StillImage" /><dc:title /></cc:Work></rdf:RDF></metadata><defs
     id="defs6"><clipPath
       id="clipPath18"
       clipPathUnits="userSpaceOnUse"><path
         id="path16"
         d="M 0,841.89 H 595.276 V 0 H 0 Z" /></clipPath></defs><g
     transform="matrix(1.3333333,0,0,-1.3333333,-91.650239,819.82196)"
     id="g10"><g
       id="g12"><g
         clip-path="url(#clipPath18)"
         id="g14"><g
   transform="translate(513.2793,452.897)"
   id="g20"><path
     id="path22"
     style="fill:#000000;fill-opacity:1;fill-rule:evenodd;stroke:none"
     d="m 0,0 c 0,88.986 -99.498,161.12 -222.235,161.12 -122.737,0 -222.236,-72.134 -222.236,-161.12 0,-88.986 99.499,-161.121 222.236,-161.121 C -99.498,-161.121 0,-88.986 0,0 m -3.304,0 c 0,9.087 -1.095,18.182 -3.269,27.139 -3.328,13.715 -9.198,27.128 -17.427,39.786 -8.231,12.652 -18.824,24.54 -31.429,35.229 -12.6,10.694 -27.209,20.183 -43.307,28.121 -16.101,7.938 -33.694,14.318 -52.146,18.909 -18.455,4.594 -37.771,7.395 -57.261,8.306 -19.486,0.906 -39.143,-0.081 -58.268,-2.925 -19.123,-2.848 -37.711,-7.546 -55.1,-13.932 -17.392,-6.386 -33.58,-14.454 -47.993,-23.906 -14.416,-9.456 -27.053,-20.292 -37.475,-32.109 -10.425,-11.816 -18.634,-24.611 -24.367,-37.931 -5.733,-13.314 -8.991,-27.156 -9.68,-41.056 -0.691,-13.895 1.186,-27.861 5.579,-41.423 4.389,-13.567 11.298,-26.741 20.508,-39.049 9.213,-12.311 20.727,-23.766 34.149,-33.934 13.426,-10.168 28.759,-19.055 45.459,-26.324 16.703,-7.27 34.768,-12.924 53.554,-16.762 18.789,-3.828 38.294,-5.842 57.822,-5.951 19.527,-0.109 39.075,1.678 57.943,5.297 18.87,3.617 37.057,9.07 53.916,16.15 16.859,7.088 32.384,15.795 46.031,25.817 13.644,10.015 25.409,21.34 34.886,33.547 9.479,12.212 16.674,25.304 21.359,38.82 4.328,12.49 6.516,25.331 6.516,38.181"
     inkscape:connector-curvature="0" /></g><g
   transform="translate(513.2793,452.897)"
   id="g24"><path
     id="path26"
     style="fill:none;stroke:#000000;stroke-width:1.41700006;stroke-linecap:round;stroke-linejoin:round;stroke-miterlimit:4;stroke-dasharray:none;stroke-opacity:1"
     d="m 0,0 c 0,88.984 -99.498,161.12 -222.235,161.12 -122.737,0 -222.236,-72.136 -222.236,-161.12 0,-88.984 99.499,-161.121 222.236,-161.121 C -99.498,-161.121 0,-88.984 0,0"
     inkscape:connector-curvature="0" /></g><g
   transform="translate(509.9756,452.897)"
   id="g28"><path
     id="path30"
     style="fill:none;stroke:#000000;stroke-width:0.70899999;stroke-linecap:round;stroke-linejoin:round;stroke-miterlimit:4;stroke-dasharray:none;stroke-opacity:1"
     d="m 0,0 c 0,9.088 -1.096,18.178 -3.27,27.141 -3.328,13.713 -9.197,27.128 -17.428,39.781 -8.23,12.654 -18.824,24.543 -31.427,35.234 -12.601,10.691 -27.209,20.18 -43.309,28.118 -16.101,7.936 -33.692,14.319 -52.147,18.912 -18.452,4.592 -37.769,7.394 -57.257,8.301 -19.487,0.908 -39.144,-0.078 -58.268,-2.923 -19.124,-2.844 -37.712,-7.546 -55.102,-13.931 -17.391,-6.386 -33.58,-14.455 -47.993,-23.908 -14.415,-9.453 -27.051,-20.288 -37.475,-32.105 -10.424,-11.817 -18.634,-24.612 -24.366,-37.931 -5.733,-13.317 -8.99,-27.157 -9.681,-41.056 -0.69,-13.9 1.186,-27.861 5.578,-41.425 4.391,-13.569 11.3,-26.737 20.511,-39.049 9.211,-12.313 20.724,-23.762 34.149,-33.932 13.424,-10.17 28.758,-19.053 45.459,-26.324 16.701,-7.272 34.767,-12.928 53.554,-16.762 18.787,-3.832 38.292,-5.842 57.821,-5.953 19.528,-0.111 39.074,1.678 57.943,5.297 18.868,3.619 37.057,9.07 53.916,16.152 16.858,7.082 32.384,15.795 46.028,25.813 13.647,10.017 25.411,21.34 34.889,33.549 9.479,12.21 16.672,25.304 21.358,38.822 C -2.191,-25.692 0,-12.847 0,0"
     inkscape:connector-curvature="0" /></g><g
   transform="translate(309.0381,353.21)"
   id="g32"><path
     id="path34"
     style="fill:#000000;fill-opacity:1;fill-rule:evenodd;stroke:none"
     d="m 0,0 16.254,1.156 20.312,5.225 29.891,8.99 17.991,11.313 10.156,10.732 3.194,5.219 L 89.672,36.254 67.038,23.494 48.174,18.27 28.151,13.629 8.418,11.02 21.475,8.117 Z m -32.345,21.459 -5.968,-5.264 -10.535,-5.966 -8.076,-3.159 -16.854,-2.812 -14.398,-1.75 10.534,-2.805 13.695,-2.812 14.747,-2.104 11.237,-0.699 8.426,-0.354 1.055,1.053 1.755,8.42 3.863,6.668 4.563,2.811 9.482,3.859 8.778,2.457 -11.235,0.353 -12.993,2.104 -5.618,2.105 z m -114.188,45.864 13.705,-1.21 12.091,-4.433 14.51,-9.67 18.136,-11.682 9.674,-8.457 14.913,-6.445 7.658,-2.822 -15.316,3.222 -11.689,2.822 -12.494,5.235 -3.628,1.211 5.643,-7.656 8.464,-4.834 12.092,-5.235 -22.571,6.445 -8.868,5.643 -7.656,7.65 -8.868,11.28 -5.241,6.045 -7.254,3.625 -10.882,5.642 -12.495,3.221 z M -33.517,195.59 h -8.033 l -4.921,-2.072 -3.109,-1.553 h -2.59 l -3.109,-1.035 -1.816,-1.037 -2.59,0.516 h -1.812 l -3.109,-1.036 -2.59,-0.516 -1.816,-2.332 -2.591,-1.292 -2.072,-1.813 -2.332,-2.848 -5.439,-2.072 -2.852,-1.297 -1.813,-2.328 -4.145,-2.072 -3.369,-1.297 -2.331,-1.551 -3.887,-1.038 -2.33,-2.847 -3.888,-1.812 -2.851,-1.037 -3.109,-2.588 -2.33,-1.036 -3.628,-0.775 -1.296,-1.038 -1.554,-1.036 -3.367,-1.557 -3.888,-1.812 -2.848,-0.516 -2.075,-1.551 -1.037,-2.073 -3.367,-1.297 -2.851,-3.884 -1.812,-0.776 -2.59,-3.109 -2.073,-1.036 -1.296,-2.849 -1.037,-2.588 -1.812,-3.365 -2.851,-2.072 -1.555,-1.557 -0.776,-2.327 -2.073,-1.552 -2.851,-2.073 -1.293,-3.624 v -0.521 l -0.78,-1.552 -0.257,-2.332 -1.297,-1.292 -2.332,-2.594 -0.777,-3.363 0.258,-3.886 -1.035,-3.109 -0.519,-2.072 -0.519,-3.624 0.779,-5.177 -0.779,-1.811 1.555,-1.813 8.55,0.255 12.955,-0.255 17.877,-0.781 7.515,-1.036 5.44,-1.553 7.253,-4.398 8.551,-6.219 4.145,-3.884 13.214,-5.697 5.7,-3.363 9.069,-5.44 7.772,-3.884 8.809,-5.434 6.475,-2.594 7.257,-4.4 5.701,-3.11 9.065,-7.509 5.181,-2.073 6.736,-0.513 12.178,-0.524 15.287,3.371 10.363,3.108 14.509,1.293 11.917,3.369 5.441,3.363 11.919,3.885 5.699,2.588 0.26,0.521 -1.295,7.248 3.108,1.295 -0.258,1.037 4.403,3.364 v 1.552 l 4.406,3.631 1.814,-0.781 2.331,1.557 1.037,-0.52 3.626,1.295 5.181,-1.295 1.814,-1.037 3.369,-0.516 3.369,-2.847 10.881,2.326 -1.036,9.067 2.85,4.92 1.037,8.801 2.591,1.817 0.774,5.177 1.816,3.884 -0.518,4.66 2.33,6.474 -1.293,6.994 -1.555,5.697 -6.216,4.14 -5.186,4.665 -7.511,2.328 -5.702,3.37 -3.108,4.66 -7.254,4.661 -2.072,2.588 -4.406,5.697 -8.81,4.4 -3.886,2.593 -1.811,1.551 -5.444,0.261 -8.028,2.073 -4.926,2.588 -3.108,2.848 -10.622,2.073 -5.959,1.551 -6.734,0.516 -5.705,3.37 -8.289,2.327 -8.031,2.333 -3.626,1.553 -5.96,2.332 -6.478,1.037 -3.109,0.775 -5.701,2.073 -2.849,2.848 -6.217,1.812 -1.814,3.11 0.518,1.812 z M 154.174,99.687 c 0,5.713 -0.721,11.415 -2.226,17.21 -1.506,5.795 -3.803,11.692 -6.999,17.633 -2.675,4.964 -5.979,9.961 -9.965,14.915 -3.982,4.953 -8.633,9.853 -13.94,14.578 -8.176,7.282 -17.97,14.189 -29.067,20.271 -11.099,6.087 -23.539,11.367 -36.861,15.534 -13.836,4.329 -28.653,7.466 -43.851,9.223 -15.437,1.791 -31.277,2.149 -46.871,1.075 -15.59,-1.075 -30.942,-3.592 -45.435,-7.4 -14.492,-3.81 -28.112,-8.92 -40.347,-14.998 -12.233,-6.081 -23.051,-13.135 -32.147,-20.704 -9.096,-7.563 -16.438,-15.626 -22.023,-23.726 -4.249,-6.159 -7.483,-12.322 -9.81,-18.399 -2.328,-6.07 -3.762,-12.05 -4.405,-17.975 -0.644,-5.925 -0.502,-11.81 0.436,-17.752 0.939,-5.941 2.68,-11.954 5.35,-18.062 2.67,-6.11 6.272,-12.313 10.882,-18.442 3.865,-5.145 8.46,-10.256 13.775,-15.213 5.315,-4.961 11.331,-9.756 18.013,-14.254 6.682,-4.504 14.026,-8.719 21.92,-12.527 12.449,-6.018 26.284,-11.008 40.959,-14.694 14.67,-3.679 30.174,-6.029 45.887,-6.929 15.71,-0.895 31.639,-0.33 47.095,1.668 15.458,1.994 30.477,5.422 44.425,10.07 11.177,3.725 21.679,8.229 31.227,13.328 7.958,4.25 15.279,8.914 21.83,13.852 6.549,4.933 12.341,10.146 17.33,15.48 4.993,5.328 9.166,10.77 12.575,16.213 3.403,5.442 6.043,10.882 7.976,16.227 1.938,5.35 3.177,10.612 3.798,15.855 0.314,2.652 0.469,5.299 0.469,7.943"
     inkscape:connector-curvature="0" /></g><g
   transform="translate(463.2119,452.897)"
   id="g36"><path
     id="path38"
     style="fill:none;stroke:#000000;stroke-width:0.70899999;stroke-linecap:round;stroke-linejoin:round;stroke-miterlimit:4;stroke-dasharray:none;stroke-opacity:1"
     d="m 0,0 c 0,5.71 -0.719,11.413 -2.226,17.209 -1.505,5.796 -3.803,11.695 -6.999,17.632 -2.673,4.97 -5.979,9.965 -9.964,14.918 -3.983,4.953 -8.636,9.853 -13.94,14.576 -8.177,7.282 -17.97,14.188 -29.068,20.272 -11.099,6.084 -23.538,11.367 -36.859,15.535 -13.836,4.329 -28.655,7.465 -43.855,9.224 -15.435,1.787 -31.277,2.149 -46.868,1.074 -15.591,-1.073 -30.943,-3.595 -45.434,-7.403 -14.492,-3.808 -28.114,-8.919 -40.348,-14.997 -12.233,-6.079 -23.052,-13.135 -32.148,-20.7 -9.095,-7.565 -16.436,-15.629 -22.022,-23.728 -4.25,-6.158 -7.482,-12.325 -9.81,-18.398 -2.329,-6.074 -3.764,-12.051 -4.406,-17.975 -0.643,-5.924 -0.503,-11.812 0.436,-17.754 0.939,-5.941 2.681,-11.955 5.35,-18.064 2.67,-6.106 6.271,-12.311 10.881,-18.442 3.865,-5.143 8.463,-10.254 13.778,-15.213 5.313,-4.961 11.329,-9.752 18.011,-14.254 6.682,-4.5 14.026,-8.715 21.921,-12.529 12.447,-6.014 26.284,-11.006 40.956,-14.686 14.674,-3.683 30.177,-6.035 45.888,-6.929 15.711,-0.895 31.64,-0.332 47.096,1.666 15.458,1.996 30.48,5.42 44.425,10.068 11.176,3.723 21.683,8.231 31.228,13.328 7.957,4.248 15.278,8.916 21.83,13.852 6.549,4.933 12.34,10.146 17.33,15.478 4.99,5.33 9.166,10.772 12.572,16.215 3.408,5.443 6.045,10.882 7.981,16.23 1.935,5.345 3.174,10.612 3.795,15.854 C -0.155,-5.288 0,-2.644 0,0"
     inkscape:connector-curvature="0" /></g><text
   id="text42"
   style="font-variant:normal;font-weight:normal;font-stretch:normal;font-size:40.85209274px;font-family:'Arial Rounded MT Bold';-inkscape-font-specification:ArialRoundedMTBold;writing-mode:lr-tb;fill:#000000;fill-opacity:1;fill-rule:nonzero;stroke:none"
   transform="matrix(0.89163855,-0.45274793,-0.45274793,-0.89163855,165.4833,333.5678)"><tspan
     id="tspan40"
     y="0"
     x="0">V</tspan></text>

<text
   id="text46"
   style="font-variant:normal;font-weight:normal;font-stretch:normal;font-size:40.8520813px;font-family:'Arial Rounded MT Bold';-inkscape-font-specification:ArialRoundedMTBold;writing-mode:lr-tb;fill:#000000;fill-opacity:1;fill-rule:nonzero;stroke:none"
   transform="matrix(0.95979684,-0.2806956,-0.2806956,-0.95979684,193.8544,320.519)"><tspan
     id="tspan44"
     y="0"
     x="0">A</tspan></text>

<text
   id="text50"
   style="font-variant:normal;font-weight:normal;font-stretch:normal;font-size:40.85207367px;font-family:'Arial Rounded MT Bold';-inkscape-font-specification:ArialRoundedMTBold;writing-mode:lr-tb;fill:#000000;fill-opacity:1;fill-rule:nonzero;stroke:none"
   transform="matrix(0.98674304,-0.16229041,-0.16229041,-0.98674304,226.7438,310.2309)"><tspan
     id="tspan48"
     y="0"
     x="0">L</tspan></text>

<text
   id="text54"
   style="font-variant:normal;font-weight:normal;font-stretch:normal;font-size:40.85202408px;font-family:'Arial Rounded MT Bold';-inkscape-font-specification:ArialRoundedMTBold;writing-mode:lr-tb;fill:#000000;fill-opacity:1;fill-rule:nonzero;stroke:none"
   transform="matrix(0.99648918,-0.08372168,-0.08372168,-0.99648918,256.4698,305.6308)"><tspan
     id="tspan52"
     y="0"
     x="0">L</tspan></text>

<text
   id="text58"
   style="font-variant:normal;font-weight:normal;font-stretch:normal;font-size:40.8520813px;font-family:'Arial Rounded MT Bold';-inkscape-font-specification:ArialRoundedMTBold;writing-mode:lr-tb;fill:#000000;fill-opacity:1;fill-rule:nonzero;stroke:none"
   transform="matrix(0.99561875,0.09350564,0.09350564,-0.99561875,285.9219,302.675)"><tspan
     id="tspan56"
     y="0"
     x="0">O</tspan></text>

<text
   id="text62"
   style="font-variant:normal;font-weight:normal;font-stretch:normal;font-size:40.85208893px;font-family:'Arial Rounded MT Bold';-inkscape-font-specification:ArialRoundedMTBold;writing-mode:lr-tb;fill:#000000;fill-opacity:1;fill-rule:nonzero;stroke:none"
   transform="matrix(0.98269396,0.18523655,0.18523655,-0.98269396,323.6622,305.6233)"><tspan
     id="tspan60"
     y="0"
     x="0">R</tspan></text>

<text
   id="text66"
   style="font-variant:normal;font-weight:normal;font-stretch:normal;font-size:40.8520813px;font-family:'Arial Rounded MT Bold';-inkscape-font-specification:ArialRoundedMTBold;writing-mode:lr-tb;fill:#000000;fill-opacity:1;fill-rule:nonzero;stroke:none"
   transform="matrix(0.95249245,0.3045622,0.3045622,-0.95249245,359.5944,311.6386)"><tspan
     id="tspan64"
     y="0"
     x="0">B</tspan></text>

<text
   id="text70"
   style="font-variant:normal;font-weight:normal;font-stretch:normal;font-size:40.85211945px;font-family:'Arial Rounded MT Bold';-inkscape-font-specification:ArialRoundedMTBold;writing-mode:lr-tb;fill:#000000;fill-opacity:1;fill-rule:nonzero;stroke:none"
   transform="matrix(0.90170839,0.43234475,0.43234475,-0.90170839,394.0624,322.4104)"><tspan
     id="tspan68"
     y="0"
     x="0">E</tspan></text>

<text
   id="text74"
   style="font-variant:normal;font-weight:normal;font-stretch:normal;font-size:40.85210419px;font-family:'Arial Rounded MT Bold';-inkscape-font-specification:ArialRoundedMTBold;writing-mode:lr-tb;fill:#000000;fill-opacity:1;fill-rule:nonzero;stroke:none"
   transform="matrix(0.98001076,0.19894447,0.19894447,-0.98001076,232.9266,568.0117)"><tspan
     id="tspan72"
     y="0"
     x="0">4</tspan></text>

<text
   id="text78"
   style="font-variant:normal;font-weight:normal;font-stretch:normal;font-size:40.85206604px;font-family:'Arial Rounded MT Bold';-inkscape-font-specification:ArialRoundedMTBold;writing-mode:lr-tb;fill:#000000;fill-opacity:1;fill-rule:nonzero;stroke:none"
   transform="matrix(0.9919156,0.12689934,0.12689934,-0.9919156,258.7995,575.6679)"><tspan
     id="tspan76"
     y="0"
     x="0">-</tspan></text>

<text
   id="text82"
   style="font-variant:normal;font-weight:normal;font-stretch:normal;font-size:40.85205078px;font-family:'Arial Rounded MT Bold';-inkscape-font-specification:ArialRoundedMTBold;writing-mode:lr-tb;fill:#000000;fill-opacity:1;fill-rule:nonzero;stroke:none"
   transform="matrix(0.99761207,0.0690663,0.0690663,-0.99761207,275.9054,574.4497)"><tspan
     id="tspan80"
     y="0"
     x="0">5</tspan></text>

<text
   id="text86"
   style="font-variant:normal;font-weight:normal;font-stretch:normal;font-size:40.85206223px;font-family:'Arial Rounded MT Bold';-inkscape-font-specification:ArialRoundedMTBold;writing-mode:lr-tb;fill:#000000;fill-opacity:1;fill-rule:nonzero;stroke:none"
   transform="matrix(0.98995982,-0.14134905,-0.14134905,-0.98995982,309.7224,575.0168)"><tspan
     id="tspan84"
     y="0"
     x="0">M</tspan></text>

<text
   id="text90"
   style="font-variant:normal;font-weight:normal;font-stretch:normal;font-size:40.85213089px;font-family:'Arial Rounded MT Bold';-inkscape-font-specification:ArialRoundedMTBold;writing-mode:lr-tb;fill:#000000;fill-opacity:1;fill-rule:nonzero;stroke:none"
   transform="matrix(0.96747709,-0.25295866,-0.25295866,-0.96747709,345.9272,569.5186)"><tspan
     id="tspan88"
     y="0"
     x="0">A</tspan></text>

<text
   id="text94"
   style="font-variant:normal;font-weight:normal;font-stretch:normal;font-size:40.85203171px;font-family:'Arial Rounded MT Bold';-inkscape-font-specification:ArialRoundedMTBold;writing-mode:lr-tb;fill:#000000;fill-opacity:1;fill-rule:nonzero;stroke:none"
   transform="matrix(0.91264494,-0.40875323,-0.40875323,-0.91264494,377.2344,560.3444)"><tspan
     id="tspan92"
     y="0"
     x="0">I</tspan></text>

<text
   id="text98"
   style="font-variant:normal;font-weight:normal;font-stretch:normal;font-size:40.8520546px;font-family:'Arial Rounded MT Bold';-inkscape-font-specification:ArialRoundedMTBold;writing-mode:lr-tb;fill:#000000;fill-opacity:1;fill-rule:nonzero;stroke:none"
   transform="matrix(0.85809882,-0.51348458,-0.51348458,-0.85809882,403.5817,548.3328)"><tspan
     id="tspan96"
     y="0"
     x="0">2</tspan></text>

<text
   id="text102"
   style="font-variant:normal;font-weight:normal;font-stretch:normal;font-size:40.85208893px;font-family:'Arial Rounded MT Bold';-inkscape-font-specification:ArialRoundedMTBold;writing-mode:lr-tb;fill:#000000;fill-opacity:1;fill-rule:nonzero;stroke:none"
   transform="matrix(0.71925576,-0.69474539,-0.69474539,-0.71925576,428.068,534.2379)"><tspan
     id="tspan100"
     y="0"
     x="0">0</tspan></text>

<text
   id="text106"
   style="font-variant:normal;font-weight:normal;font-stretch:normal;font-size:40.85210037px;font-family:'Arial Rounded MT Bold';-inkscape-font-specification:ArialRoundedMTBold;writing-mode:lr-tb;fill:#000000;fill-opacity:1;fill-rule:nonzero;stroke:none"
   transform="matrix(0.51197368,0.85900113,0.85900113,-0.51197368,111.9549,480.4418)"><tspan
     id="tspan104"
     y="0"
     x="0">A</tspan></text>

<text
   id="text110"
   style="font-variant:normal;font-weight:normal;font-stretch:normal;font-size:40.85207367px;font-family:'Arial Rounded MT Bold';-inkscape-font-specification:ArialRoundedMTBold;writing-mode:lr-tb;fill:#000000;fill-opacity:1;fill-rule:nonzero;stroke:none"
   transform="matrix(0.32258092,-0.94654189,-0.94654189,-0.32258092,462.6168,498.0681)"><tspan
     id="tspan108"
     y="0"
     x="0">9</tspan></text>

<text
   id="text114"
   style="font-variant:normal;font-weight:normal;font-stretch:normal;font-size:40.85204697px;font-family:'Arial Rounded MT Bold';-inkscape-font-specification:ArialRoundedMTBold;writing-mode:lr-tb;fill:#000000;fill-opacity:1;fill-rule:nonzero;stroke:none"
   transform="matrix(0.70568315,0.70852756,0.70852756,-0.70568315,125.9278,506.6972)"><tspan
     id="tspan112"
     y="0"
     x="0">D</tspan></text>

<text
   id="text118"
   style="font-variant:normal;font-weight:normal;font-stretch:normal;font-size:40.85211182px;font-family:'Arial Rounded MT Bold';-inkscape-font-specification:ArialRoundedMTBold;writing-mode:lr-tb;fill:#000000;fill-opacity:1;fill-rule:nonzero;stroke:none"
   transform="matrix(0.87534026,0.48350742,0.48350742,-0.87534026,167.1584,541.6681)"><tspan
     id="tspan116"
     y="0"
     x="0">D</tspan></text>

<text
   id="text122"
   style="font-variant:normal;font-weight:normal;font-stretch:normal;font-size:40.85205841px;font-family:'Arial Rounded MT Bold';-inkscape-font-specification:ArialRoundedMTBold;writing-mode:lr-tb;fill:#000000;fill-opacity:1;fill-rule:nonzero;stroke:none"
   transform="matrix(0.85897018,0.51202561,0.51202561,-0.85897018,150.6082,530.8228)"><tspan
     id="tspan120"
     y="0"
     x="0">/</tspan></text>

<text
   id="text126"
   style="font-variant:normal;font-weight:normal;font-stretch:normal;font-size:40.85209656px;font-family:'Arial Rounded MT Bold';-inkscape-font-specification:ArialRoundedMTBold;writing-mode:lr-tb;fill:#000000;fill-opacity:1;fill-rule:nonzero;stroke:none"
   transform="matrix(0.94692079,0.32146697,0.32146697,-0.94692079,194.038,556.5162)"><tspan
     id="tspan124"
     y="0"
     x="0">V</tspan></text>

<text
   id="text130"
   style="font-variant:normal;font-weight:normal;font-stretch:normal;font-size:40.85203171px;font-family:'Arial Rounded MT Bold';-inkscape-font-specification:ArialRoundedMTBold;writing-mode:lr-tb;fill:#000000;fill-opacity:1;fill-rule:nonzero;stroke:none"
   transform="matrix(0.57436311,-0.81860065,-0.81860065,-0.57436311,447.7053,517.7171)"><tspan
     id="tspan128"
     y="0"
     x="0">1</tspan></text>

<g
   transform="translate(275.5215,548.7993)"
   id="g132"><path
     id="path134"
     style="fill:none;stroke:#000000;stroke-width:0.70899999;stroke-linecap:round;stroke-linejoin:round;stroke-miterlimit:4;stroke-dasharray:none;stroke-opacity:1"
     d="m 0,0 h -8.031 l -4.923,-2.071 -3.109,-1.554 h -2.592 l -3.108,-1.037 -1.814,-1.035 -2.59,0.518 h -1.814 l -3.109,-1.036 -2.591,-0.517 -1.814,-2.331 -2.591,-1.294 -2.072,-1.814 -2.333,-2.848 -5.44,-2.071 -2.85,-1.295 -1.814,-2.331 -4.144,-2.072 -3.37,-1.294 -2.331,-1.554 -3.885,-1.036 -2.333,-2.848 -3.886,-1.813 -2.85,-1.036 -3.109,-2.589 -2.332,-1.036 -3.628,-0.777 -1.295,-1.035 -1.555,-1.036 -3.367,-1.554 -3.887,-1.812 -2.85,-0.519 -2.073,-1.553 -1.036,-2.073 -3.368,-1.294 -2.85,-3.883 -1.814,-0.778 -2.59,-3.107 -2.073,-1.036 -1.296,-2.849 -1.036,-2.589 -1.814,-3.367 -2.85,-2.07 -1.554,-1.555 -0.777,-2.33 -2.073,-1.554 -2.85,-2.071 -1.295,-3.626 v -0.517 l -0.778,-1.554 -0.259,-2.332 -1.295,-1.295 -2.332,-2.589 -0.777,-3.366 0.259,-3.884 -1.036,-3.107 -0.519,-2.073 -0.518,-3.624 0.778,-5.178 -0.778,-1.813 1.556,-1.813 8.549,0.259 12.955,-0.259 17.876,-0.777 7.514,-1.036 5.441,-1.553 7.254,-4.403 8.551,-6.216 4.144,-3.882 13.213,-5.699 5.701,-3.364 9.068,-5.441 7.772,-3.883 8.809,-5.435 6.477,-2.592 7.254,-4.401 5.7,-3.109 9.069,-7.51 5.181,-2.072 6.737,-0.518 12.176,-0.515 15.287,3.365 10.363,3.109 14.509,1.293 11.919,3.368 5.438,3.365 11.92,3.885 5.701,2.589 0.258,0.518 -1.296,7.25 3.109,1.293 -0.258,1.039 4.403,3.363 v 1.557 l 4.405,3.625 1.814,-0.779 2.332,1.556 1.037,-0.517 3.626,1.293 5.183,-1.293 1.812,-1.039 3.368,-0.516 3.369,-2.848 10.881,2.33 -1.035,9.063 2.85,4.921 1.035,8.803 2.591,1.813 0.778,5.178 1.813,3.885 -0.517,4.661 2.33,6.474 -1.296,6.992 -1.554,5.697 -6.217,4.143 -5.183,4.66 -7.512,2.331 -5.701,3.367 -3.108,4.66 -7.254,4.662 -2.074,2.589 -4.405,5.697 -8.809,4.403 -3.886,2.589 -1.814,1.553 -5.441,0.26 -8.029,2.07 -4.925,2.59 -3.108,2.849 -10.622,2.072 -5.959,1.553 -6.738,0.518 -5.699,3.366 -8.291,2.331 -8.031,2.331 -3.627,1.553 -5.959,2.331 -6.479,1.035 -3.108,0.778 -5.699,2.072 -2.851,2.847 -6.218,1.813 -1.812,3.108 0.516,1.813 L 0,0"
     inkscape:connector-curvature="0" /></g><g
   transform="translate(341.8457,380.8115)"
   id="g136"><path
     id="path138"
     style="fill:#000000;fill-opacity:1;fill-rule:evenodd;stroke:none"
     d="m 0,0 -0.278,1.654 -0.218,1.428 -0.056,0.443 -0.277,0.934 v 0.939 l -0.438,1.157 -0.058,0.715 -0.056,0.986 -0.438,1.049 0.219,1.101 -0.331,0.877 0.112,0.832 -0.165,0.934 0.053,0.824 -0.165,1.379 -0.384,1.484 v 0.496 l -0.054,1.045 -0.332,0.772 v 0.992 l -0.278,0.607 -0.218,0.934 -0.22,0.332 -0.221,-0.055 -0.33,-0.769 -0.11,-0.385 -0.168,-0.664 0.114,-0.275 -0.167,-0.332 0.053,-0.327 v -0.275 l 0.058,-0.385 0.11,-0.662 -0.168,-0.33 -0.438,-0.549 v -0.332 l -0.498,0.385 -0.384,0.881 -0.165,0.607 -0.053,0.602 -0.279,0.83 0.221,0.601 -0.273,0.94 0.052,0.439 0.054,1.264 0.111,0.5 0.497,0.932 0.332,2.427 0.716,1.155 -0.058,1.32 0.279,0.936 0.439,0.88 0.661,0.94 0.331,1.646 0.332,0.664 0.657,0.877 0.995,0.61 1.928,0.769 0.659,0.385 -0.109,0.441 -0.219,0.331 -0.057,0.937 -0.384,0.549 -0.112,0.717 -0.992,0.385 0.274,1.269 0.994,1.487 2.037,0.548 1.49,-0.331 0.881,-0.933 0.274,-0.994 V 39.807 L 5.838,38.598 5.782,37.881 6.003,37.496 6.664,36.779 7.877,36.232 8.979,35.076 9.694,33.258 9.86,30.617 10.135,29.07 10.411,27.42 10.465,26.266 10.3,24.887 10.796,22.244 10.742,20.096 10.796,19.549 V 18.277 L 10.465,16.631 10.411,15.967 9.968,14.811 9.253,14.48 8.867,14.258 8.759,13.654 8.812,13.164 9.197,12.555 9.968,12.387 11.127,11.178 11.401,9.912 11.566,8.756 12.779,6.662 13.494,5.014 13.99,4.129 14.817,3.195 15.313,2.258 15.589,1.926 15.479,1.432 14.817,1.156 13.055,0.438 H 12.724 L 11.292,2.148 10.411,4.629 8.759,6.5 8.315,7.541 6.995,8.096 6.499,9.143 5.563,9.473 4.955,10.684 4.462,12.115 4.35,13.102 3.966,14.041 3.854,14.15 3.248,13.873 3.137,12.83 2.698,12.17 2.646,11.344 2.809,10.244 2.587,8.756 2.533,7.654 2.422,6.824 2.256,5.506 2.366,3.414 2.478,2.094 2.752,0.607 2.973,-0.387 1.596,-0.549 0.054,-0.607 Z"
     inkscape:connector-curvature="0" /></g><g
   transform="translate(341.8428,380.8115)"
   id="g140"><path
     id="path142"
     style="fill:none;stroke:#000000;stroke-width:0.70899999;stroke-linecap:round;stroke-linejoin:round;stroke-miterlimit:4;stroke-dasharray:none;stroke-opacity:1"
     d="m 0,0 -0.273,1.652 -0.22,1.432 -0.056,0.439 -0.277,0.936 v 0.937 l -0.441,1.157 -0.055,0.715 -0.054,0.99 -0.44,1.047 0.219,1.101 -0.331,0.883 0.112,0.824 -0.165,0.936 0.053,0.826 -0.165,1.377 -0.385,1.488 v 0.492 l -0.055,1.049 -0.33,0.77 v 0.99 l -0.276,0.605 -0.22,0.938 -0.22,0.33 -0.221,-0.055 -0.33,-0.771 -0.11,-0.385 -0.165,-0.662 0.109,-0.273 -0.165,-0.332 0.056,-0.331 V 18.83 l 0.055,-0.385 0.11,-0.66 -0.165,-0.33 -0.441,-0.551 v -0.332 l -0.498,0.387 -0.385,0.881 -0.165,0.605 -0.055,0.606 -0.276,0.826 0.221,0.605 -0.273,0.938 0.052,0.439 0.056,1.266 0.11,0.498 0.496,0.934 0.332,2.423 0.713,1.155 -0.052,1.322 0.274,0.936 0.441,0.88 0.661,0.936 0.331,1.654 0.33,0.66 0.661,0.881 0.991,0.606 1.929,0.771 0.66,0.385 -0.109,0.441 -0.22,0.331 -0.056,0.935 -0.385,0.55 -0.111,0.716 -0.992,0.385 0.277,1.267 0.991,1.488 2.039,0.549 1.488,-0.33 0.881,-0.936 0.274,-0.992 V 39.809 L 5.841,38.598 5.785,37.881 6.006,37.496 6.667,36.781 7.88,36.23 l 1.102,-1.156 0.715,-1.816 0.165,-2.645 0.276,-1.541 0.276,-1.652 0.055,-1.154 -0.166,-1.379 0.496,-2.643 -0.056,-2.146 0.056,-0.551 V 18.281 L 10.469,16.627 10.414,15.967 9.973,14.811 9.256,14.48 8.87,14.262 8.762,13.654 8.814,13.158 9.202,12.553 9.973,12.389 11.13,11.178 11.404,9.91 11.569,8.756 12.782,6.662 13.5,5.01 13.993,4.129 14.82,3.193 15.316,2.258 15.592,1.928 15.481,1.432 14.82,1.156 13.058,0.441 H 12.727 L 11.295,2.148 10.414,4.625 8.762,6.496 8.32,7.543 6.998,8.094 6.502,9.141 5.564,9.471 4.958,10.682 4.465,12.113 4.353,13.105 3.969,14.041 3.856,14.15 3.251,13.875 3.142,12.83 2.701,12.168 2.646,11.342 2.811,10.242 2.59,8.756 2.536,7.652 2.425,6.826 2.26,5.506 2.369,3.414 2.48,2.092 2.755,0.605 2.976,-0.387 1.599,-0.551 0.057,-0.605 0,0"
     inkscape:connector-curvature="0" /></g><g
   transform="translate(337.1094,412.0479)"
   id="g144"><path
     id="path146"
     style="fill:none;stroke:#000000;stroke-width:0.70899999;stroke-linecap:round;stroke-linejoin:round;stroke-miterlimit:4;stroke-dasharray:none;stroke-opacity:1"
     d="M 0,0 -0.386,-1.322 0.385,-2.807 0.661,-2.535 0.33,-0.605 0,0"
     inkscape:connector-curvature="0" /></g><g
   transform="translate(350.1074,397.6045)"
   id="g148"><path
     id="path150"
     style="fill:none;stroke:#000000;stroke-width:0.70899999;stroke-linecap:round;stroke-linejoin:round;stroke-miterlimit:4;stroke-dasharray:none;stroke-opacity:1"
     d="M 0,0 H 0.497 L 0.33,2.148 0.109,3.359 -0.165,3.58 -0.605,2.92 V 1.652 L -0.331,0.166 0,0"
     inkscape:connector-curvature="0" /></g><g
   transform="translate(208.8857,521.249)"
   id="g152"><path
     id="path154"
     style="fill:#000000;fill-opacity:1;fill-rule:evenodd;stroke:none"
     d="m 0,0 v -7.033 l -0.878,-0.291 1.467,-7.033 v -9.077 -11.719 l -1.175,-11.713 -2.637,-8.498 -0.586,-4.102 0.293,-1.757 -2.637,-11.127 -0.878,-9.67 -0.586,-8.79 -0.294,-1.464 -0.588,-4.682 10.846,-3.81 -1.465,14.058 1.172,15.235 2.637,9.957 1.758,6.739 v 4.101 l 0.292,8.784 0.293,9.375 0.587,9.083 -0.88,7.613 v 6.738 L 7.034,-3.516 6.563,-0.19 6.671,5.078 0.247,1.73 Z"
     inkscape:connector-curvature="0" /></g><g
   transform="translate(208.8867,521.248)"
   id="g156"><path
     id="path158"
     style="fill:none;stroke:#000000;stroke-width:0.70899999;stroke-linecap:round;stroke-linejoin:round;stroke-miterlimit:4;stroke-dasharray:none;stroke-opacity:1"
     d="m 0,0 v -7.03 l -0.879,-0.293 1.466,-7.031 v -9.08 -11.717 l -1.174,-11.718 -2.637,-8.494 -0.586,-4.101 0.293,-1.757 -2.637,-11.131 -0.88,-9.667 -0.586,-8.787 -0.292,-1.465 -0.587,-4.688 10.845,-3.808 -1.466,14.062 1.172,15.231 2.638,9.96 1.758,6.736 v 4.102 l 0.293,8.787 0.293,9.373 0.587,9.082 -0.88,7.616 v 6.737 L 7.034,-3.515 6.561,-0.189 6.67,5.08 0.246,1.731 0,0"
     inkscape:connector-curvature="0" /></g><g
   transform="translate(361.6152,518.8291)"
   id="g160"><path
     id="path162"
     style="fill:#000000;fill-opacity:1;fill-rule:evenodd;stroke:none"
     d="m 0,0 -0.106,-6.006 0.253,-6.582 -3.714,6.077 -4.642,4.384 -7.849,5.399 -0.59,-0.336 2.53,-1.937 2.619,-1.861 -4.474,-0.081 h -1.014 l -2.364,0.927 -4.977,0.167 -1.446,-0.58 -1.875,-1.556 -1.135,-1.476 -0.791,-0.528 0.026,-0.026 0.924,0.472 1.108,1.373 1.347,1.161 1.608,0.846 1.583,0.049 2.085,-0.022 1.927,-0.212 0.635,-0.292 0.497,-0.26 -0.077,-0.185 -0.606,-0.266 -0.818,-0.315 -1.398,-0.423 -1.371,-0.635 -0.952,-0.737 -1.295,-0.95 -0.631,-0.841 -0.713,-0.951 -1.769,-1.425 -1.792,-1.319 -1.346,-1.291 -0.581,-1.319 1.054,1.395 1.901,1.612 2.192,1.714 1.318,1.345 1.24,1.345 1.926,1.265 1.557,0.608 1.424,0.368 0.843,0.472 0.502,0.294 1.636,-0.082 3.089,0.054 1.293,-0.054 0.792,-0.314 1,-0.896 2.534,-2.007 2.35,-2.268 1.66,-2.48 1.953,-3.451 0.767,-3.298 -0.16,-0.451 -0.368,0.108 -0.817,1.845 -2.14,2.638 -1.451,1.817 -2.216,1.242 -1.663,0.288 -1.319,0.163 -0.475,0.575 -0.368,0.374 -0.079,0.869 0.106,0.264 -0.184,-0.422 0.022,-0.688 0.398,-0.712 0.183,-0.314 h -0.551 l -1.559,0.238 -1.056,0.021 -1.555,-0.575 -1.162,-0.633 -0.843,-0.506 -1.24,-0.943 -0.765,-0.69 -0.449,-0.921 -0.159,-1.107 0.554,1.583 0.343,0.527 1.637,1.264 1.872,1.053 1.846,0.743 1.322,-0.082 h 0.21 l -0.422,-0.71 -0.344,-1.161 -0.156,-0.847 -0.476,-0.868 -0.554,-0.662 -1.055,-0.764 0.739,0.265 0.949,0.792 0.634,0.765 0.13,0.793 0.292,1.236 0.395,0.711 0.37,0.184 1.505,0.028 2.506,-0.342 1.637,-0.711 1.184,-1.03 1.691,-2.27 1.58,-2.131 0.848,-1.878 0.776,-2.142 0.165,-1.417 -3.427,2.34 -2.554,0.976 -2.882,1.139 -5.058,1.85 -3.045,0.11 -3.369,-0.598 -3.643,-1.958 -2.611,-1.357 -3.915,-1.579 -5.327,-3.749 -2.012,-0.434 1.944,0.292 1.518,0.951 2.62,1.855 1.378,0.955 1.47,0.602 2.227,0.868 -0.637,-1.151 -1.468,-1.181 -0.866,-1.731 -1.275,-1.769 -2.227,-2.6 -1.08,-1.574 -1.166,-0.845 1.292,0.689 1.698,2.295 1.592,1.981 1.096,1.431 1.166,1.927 0.814,0.777 1.045,0.867 0.529,1.08 3.077,1.589 3.042,1.563 2.96,0.559 3.009,-0.088 3.676,-1.339 1.817,-0.841 -2.488,-0.108 -2.983,-0.973 -3.679,-2.207 -2.035,-1.254 -3.309,-1.231 -2.833,-0.673 h -2.034 l -1.13,-0.238 -0.753,0.102 -2.09,-0.081 -0.836,0.125 -2.03,0.542 -2.574,0.923 2.176,-0.814 2.28,-0.797 -0.669,-0.5 -3.347,-1.612 -3.284,-1.714 -2.739,-1.34 -1.99,-1.004 0.064,-0.06 2.509,1.026 3.369,1.693 3.513,1.882 2.03,0.874 0.922,0.461 1.379,0.087 1.109,0.016 0.563,-0.103 0.776,0.103 1.193,0.147 1.652,0.065 1.255,0.25 0.837,-0.06 2.302,1.063 1.757,0.587 0.792,0.293 2.449,1.649 3.119,1.61 1.823,0.522 3.097,0.271 4.732,-1.573 2.718,-2.067 1.412,-1.736 0.272,-4.298 v -0.108 l -4.402,5.816 -2.176,1.904 -1.903,0.978 -4.946,1.843 -5.329,1.309 3.152,-1.254 5.818,-1.845 0.652,-0.434 -1.087,-0.982 -3.1,-1.411 -2.663,-3.315 -3.481,-2.989 -3.588,-1.357 -4.674,-0.813 -5.549,-1.634 3.603,0.901 2.13,0.57 2.042,0.342 2.64,0.51 2.556,0.966 1.791,0.992 1.758,1.416 1.503,1.644 1.561,1.877 0.967,0.766 1.335,0.624 1.164,0.14 1.275,1.135 h 0.823 l 0.881,-0.597 0.484,-1.019 1.163,-0.94 1.815,-2.099 2.473,-3.06 1.051,-2.415 0.197,-3.945 0.118,-1.611 -1.738,0.109 -3.264,-1.086 -2.011,-1.741 -1.142,-1.14 3.098,2.062 2.067,0.819 2.556,0.544 0.49,-0.544 0.053,-3.043 -0.109,-1.96 -0.054,-0.486 -1.957,2.282 -2.012,1.791 -1.468,1.689 -3.208,2.168 -4.458,1.852 -3.098,0.704 -5.386,1.633 1.415,-0.656 4.35,-1.41 4.73,-1.574 3.425,-1.958 3.156,-2.611 2.064,-2.448 1.088,-1.409 0.543,-0.922 -2.99,1.737 -4.456,1.578 -5.004,1.791 -4.298,0.928 -6.086,-0.163 -3.428,1.139 -5.002,-0.218 -3.313,-1.362 -3.699,-0.162 -3.588,0.271 4.296,-0.597 2.661,0.109 2.231,0.488 2.121,0.873 3.644,0.164 2.827,-0.542 0.163,-0.332 -6.254,-2.332 -4.512,-3.642 -4.73,-1.524 -3.481,-1.953 3.535,1.573 3.534,1.199 2.011,0.651 2.879,2.442 2.232,1.254 4.677,1.681 3.207,0.379 5.111,0.055 5.056,-1.302 0.979,-0.435 -3.806,-0.162 -2.772,-0.868 -2.447,-1.091 -1.631,-1.464 -2.555,-1.959 -2.447,-2.062 -3.644,-3.478 2.338,1.737 3.317,2.88 3.262,2.393 1.74,1.411 2.067,1.031 2.881,1.035 3.588,0.055 2.447,-0.488 3.152,-1.091 2.122,-1.791 2.718,-1.958 0.707,-2.171 v -1.306 l -1.195,1.253 -2.066,2.495 -1.468,2.448 -0.273,-0.11 1.306,-2.717 1.684,-2.231 1.847,-1.736 H 0.97 l -2.937,1.194 -3.969,0.164 -3.262,-0.109 -2.011,-0.596 -1.878,0.081 -1.694,-0.332 -1.344,-0.764 -1.448,-0.821 -1.641,-0.763 -2.766,-1.016 -1.887,-0.515 -2.6,-1.97 -1.314,-0.988 -1.917,-1.665 -1.283,-1.888 -1.644,-1.998 -1.997,-2.815 1.724,1.969 1.97,2.432 1.946,2.571 2.157,1.835 2.22,1.692 2.024,0.88 3.282,1.117 2.958,1.286 0.682,0.357 -1.668,-2.355 -3.01,-3.553 -1.068,-1.205 -1.15,-1.448 -0.492,-1.097 -0.519,-1.583 1.421,2.788 2.71,3.147 2.299,2.627 1.861,2.625 0.41,0.712 1.285,0.297 0.439,0.082 0.08,-1.286 -1.149,-2.322 -1.039,-2.707 -1.834,-3.228 -0.655,-3.256 1.067,3.5 2.272,4.16 1.147,2.818 0.466,1.035 0.083,1.421 h 1.37 l 1.284,-0.026 0.794,0.358 3.174,0.135 2.957,-0.054 2.186,-0.656 1.779,-1.123 0.384,-1.423 -0.136,-2.733 0.257,-4.097 0.309,-6.814 0.931,-4.227 -6.818,2.576 -4.232,0.722 -5.681,-1.236 -2.887,-3.099 -7.745,-7.118 5.368,4.336 4.544,3.505 3.612,2.272 3.717,0.722 4.028,-1.238 3.924,-1.963 1.548,-1.856 0.622,-2.788 0.206,-2.99 0.104,-3.819 v -1.031 l -1.447,2.886 -2.582,1.14 -4.13,2.164 -5.783,0.412 -7.958,1.692 4.2,-1.198 3.539,-0.841 0.121,-0.96 -1.14,-2.155 -4.861,-2.643 -2.7,-3.656 -1.56,-3.537 2.883,4.618 1.857,2.636 4.02,2.041 1.321,1.14 1.26,2.516 4.86,-0.836 2.761,-1.68 2.757,-2.519 2.762,-4.08 0.062,-5.817 v -3.24 l -3.002,2.161 -2.28,1.02 -3.419,0.239 -2.159,-0.537 -0.664,-0.483 3.422,0.662 4.199,-1.08 2.822,-1.618 1.619,-2.219 -0.062,-5.16 -0.574,-7.639 0.328,-10.016 0.738,-6.982 1.318,-5.914 4.434,1.893 -1.724,8.541 -0.495,10.511 -0.08,8.619 -0.247,10.267 0.412,5.663 1.875,4.394 0.782,6.907 1.562,5.601 2.218,2.343 4.691,1.828 -1.88,0.006 -3.751,-1.937 -1.754,-2.127 -0.938,-3.25 -0.878,-3.749 -1,-3.505 -0.685,-2.811 -0.503,-0.438 -0.062,5.316 1.189,8.312 0.752,6.565 0.248,3.69 2.253,3.629 3.378,6.191 2.129,4.563 1.187,4.563 3.182,4.032 4.302,6.641 -2.606,-2.735 -2.867,-4.557 -2.608,-3.522 -1.825,-5.078 -2.737,-5.208 -2.214,-4.825 -2.218,-3.125 -0.91,-3.905 -0.522,-7.298 -0.783,-5.73 -1.301,10.814 -0.261,9.766 -0.784,12.245 -0.261,6.517 0.261,11.198 v 5.215 l -0.391,4.947 -0.521,3.908 0.076,3.424 0.531,5.136 z"
     inkscape:connector-curvature="0" /></g><g
   transform="translate(361.6152,518.8311)"
   id="g164"><path
     id="path166"
     style="fill:none;stroke:#000000;stroke-width:0.70899999;stroke-linecap:round;stroke-linejoin:round;stroke-miterlimit:4;stroke-dasharray:none;stroke-opacity:1"
     d="m 0,0 -0.106,-6.007 0.253,-6.58 -3.714,6.073 -4.642,4.387 -7.849,5.398 -0.59,-0.336 2.533,-1.941 2.616,-1.856 -4.474,-0.085 h -1.014 l -2.361,0.929 -4.981,0.168 -1.445,-0.58 -1.875,-1.556 -1.135,-1.477 -0.791,-0.528 0.026,-0.026 0.924,0.474 1.108,1.372 1.346,1.16 1.609,0.844 1.583,0.053 2.085,-0.027 1.927,-0.211 0.633,-0.289 0.502,-0.264 -0.08,-0.184 -0.606,-0.264 -0.818,-0.317 -1.399,-0.422 -1.373,-0.634 -0.949,-0.737 -1.295,-0.95 -0.631,-0.843 -0.713,-0.95 -1.768,-1.423 -1.793,-1.32 -1.348,-1.292 -0.579,-1.319 1.054,1.398 1.901,1.61 2.19,1.713 1.32,1.344 1.24,1.345 1.926,1.267 1.557,0.606 1.424,0.37 0.845,0.474 0.5,0.291 1.636,-0.08 3.089,0.053 1.292,-0.053 0.791,-0.316 1.002,-0.897 2.534,-2.004 2.348,-2.268 1.664,-2.48 1.952,-3.454 0.766,-3.296 -0.16,-0.448 -0.37,0.104 -0.815,1.847 -2.138,2.637 -1.453,1.819 -2.216,1.24 -1.661,0.29 -1.321,0.158 -0.475,0.581 -0.368,0.369 -0.08,0.871 0.105,0.263 -0.184,-0.421 0.026,-0.686 0.396,-0.713 0.186,-0.316 h -0.554 l -1.559,0.237 -1.055,0.027 -1.556,-0.581 -1.16,-0.633 -0.845,-0.5 -1.24,-0.951 -0.765,-0.684 -0.449,-0.923 -0.159,-1.108 0.554,1.582 0.343,0.527 1.637,1.266 1.872,1.056 1.847,0.737 1.32,-0.079 h 0.211 l -0.422,-0.712 -0.344,-1.16 -0.156,-0.843 -0.476,-0.871 -0.554,-0.66 -1.055,-0.765 0.737,0.265 0.951,0.79 0.632,0.765 0.132,0.791 0.292,1.239 0.395,0.713 0.37,0.185 1.505,0.027 2.506,-0.344 1.634,-0.712 1.19,-1.028 1.688,-2.268 1.583,-2.136 0.843,-1.872 0.778,-2.149 0.163,-1.412 -3.425,2.337 -2.554,0.977 -2.883,1.141 -5.057,1.848 -3.045,0.11 -3.372,-0.599 -3.64,-1.957 -2.611,-1.357 -3.915,-1.577 -5.329,-3.75 -2.01,-0.434 1.944,0.29 1.518,0.954 2.62,1.855 1.378,0.955 1.47,0.601 2.227,0.866 -0.637,-1.15 -1.468,-1.184 -0.866,-1.732 -1.272,-1.767 -2.23,-2.598 -1.08,-1.574 -1.166,-0.848 1.292,0.689 1.698,2.298 1.59,1.981 1.097,1.43 1.167,1.929 0.814,0.776 1.043,0.867 0.531,1.077 3.077,1.591 3.039,1.562 2.964,0.563 3.008,-0.086 3.678,-1.342 1.817,-0.842 -2.488,-0.108 -2.985,-0.973 -3.679,-2.206 -2.034,-1.254 -3.31,-1.233 -2.835,-0.671 h -2.032 l -1.13,-0.239 -0.753,0.104 -2.09,-0.083 -0.837,0.125 -2.029,0.543 -2.574,0.921 2.176,-0.816 2.28,-0.794 -0.669,-0.502 -3.347,-1.61 -3.284,-1.714 -2.741,-1.338 -1.988,-1.004 0.064,-0.063 2.51,1.025 3.368,1.694 3.515,1.882 2.028,0.877 0.919,0.46 1.382,0.084 1.109,0.021 0.565,-0.105 0.774,0.105 1.193,0.146 1.652,0.063 1.255,0.251 0.837,-0.063 2.3,1.066 1.758,0.586 0.795,0.293 2.447,1.651 3.117,1.61 1.822,0.52 3.1,0.272 4.73,-1.576 2.72,-2.065 1.412,-1.738 0.272,-4.294 v -0.109 l -4.404,5.815 -2.174,1.902 -1.903,0.979 -4.948,1.848 -5.328,1.303 3.153,-1.25 5.818,-1.848 0.652,-0.433 -1.087,-0.979 -3.1,-1.414 -2.663,-3.315 -3.481,-2.988 -3.588,-1.359 -4.675,-0.814 -5.548,-1.631 3.603,0.902 2.13,0.567 2.042,0.342 2.642,0.51 2.555,0.965 1.789,0.993 1.759,1.418 1.503,1.646 1.563,1.872 0.965,0.766 1.335,0.624 1.164,0.142 1.275,1.135 h 0.824 l 0.88,-0.596 0.484,-1.02 1.163,-0.937 1.816,-2.1 2.472,-3.064 1.051,-2.412 0.197,-3.944 0.119,-1.613 -1.739,0.109 -3.263,-1.086 -2.012,-1.74 -1.142,-1.141 3.098,2.065 2.067,0.816 2.556,0.542 0.49,-0.542 0.053,-3.044 -0.108,-1.956 -0.055,-0.489 -1.957,2.282 -2.012,1.792 -1.468,1.685 -3.207,2.174 -4.459,1.848 -3.1,0.706 -5.381,1.631 1.412,-0.653 4.35,-1.412 4.731,-1.576 3.424,-1.956 3.156,-2.609 2.065,-2.446 1.087,-1.412 0.545,-0.924 -2.992,1.738 -4.457,1.577 -5.003,1.793 -4.295,0.923 -6.089,-0.163 -3.426,1.141 -5.002,-0.217 -3.317,-1.357 -3.697,-0.164 -3.588,0.272 4.296,-0.599 2.663,0.11 2.229,0.489 2.12,0.869 3.644,0.163 2.826,-0.544 0.163,-0.325 -6.252,-2.336 -4.514,-3.643 -4.73,-1.521 -3.479,-1.956 3.535,1.577 3.534,1.194 2.011,0.653 2.882,2.445 2.229,1.251 4.677,1.684 3.207,0.381 5.111,0.053 5.056,-1.304 0.979,-0.434 -3.806,-0.165 -2.773,-0.869 -2.446,-1.087 -1.631,-1.466 -2.557,-1.957 -2.445,-2.064 -3.644,-3.479 2.338,1.739 3.317,2.88 3.262,2.392 1.74,1.413 2.066,1.032 2.882,1.033 3.588,0.055 2.447,-0.491 3.152,-1.087 2.122,-1.793 2.718,-1.956 0.707,-2.173 v -1.305 l -1.195,1.25 -2.066,2.5 -1.468,2.446 -0.273,-0.11 1.306,-2.716 1.684,-2.228 1.85,-1.74 H 0.97 l -2.937,1.197 -3.969,0.162 -3.262,-0.109 -2.012,-0.596 -1.877,0.079 -1.695,-0.329 -1.343,-0.766 -1.448,-0.821 -1.644,-0.765 -2.763,-1.012 -1.887,-0.519 -2.6,-1.969 -1.314,-0.985 -1.915,-1.669 -1.285,-1.887 -1.644,-1.997 -1.997,-2.817 1.726,1.97 1.969,2.434 1.942,2.571 2.162,1.833 2.218,1.694 2.024,0.876 3.282,1.122 2.955,1.285 0.685,0.355 -1.669,-2.351 -3.009,-3.556 -1.068,-1.204 -1.15,-1.449 -0.492,-1.094 -0.519,-1.586 1.421,2.789 2.71,3.145 2.299,2.626 1.861,2.625 0.41,0.711 1.285,0.302 0.439,0.082 0.08,-1.285 -1.147,-2.326 -1.041,-2.707 -1.832,-3.227 -0.657,-3.255 1.067,3.501 2.272,4.158 1.149,2.816 0.464,1.04 0.083,1.421 h 1.367 l 1.287,-0.027 0.794,0.356 3.174,0.136 2.955,-0.055 2.188,-0.656 1.779,-1.122 0.384,-1.421 -0.136,-2.735 0.257,-4.099 0.309,-6.812 0.931,-4.232 -6.815,2.58 -4.235,0.724 -5.679,-1.238 -2.892,-3.096 -7.745,-7.122 5.371,4.335 4.544,3.508 3.612,2.271 3.719,0.723 4.026,-1.239 3.924,-1.962 1.548,-1.857 0.622,-2.786 0.206,-2.993 0.102,-3.818 v -1.031 l -1.445,2.888 -2.582,1.136 -4.13,2.166 -5.783,0.413 -7.958,1.693 4.2,-1.2 3.539,-0.839 0.121,-0.96 -1.14,-2.158 -4.861,-2.64 -2.7,-3.658 -1.557,-3.538 2.879,4.619 1.86,2.637 4.018,2.04 1.321,1.14 1.26,2.518 4.86,-0.839 2.761,-1.679 2.758,-2.521 2.761,-4.076 0.06,-5.817 v -3.239 l -3,2.159 -2.281,1.021 -3.418,0.239 -2.162,-0.54 -0.659,-0.48 3.42,0.66 4.199,-1.08 2.822,-1.619 1.619,-2.219 -0.062,-5.159 -0.574,-7.639 0.328,-10.017 0.738,-6.981 1.315,-5.91 4.437,1.887 -1.724,8.541 -0.492,10.509 -0.083,8.623 -0.247,10.264 0.41,5.667 1.877,4.396 0.782,6.904 1.562,5.601 2.217,2.346 4.694,1.823 -1.88,0.011 -3.755,-1.938 -1.752,-2.127 -0.938,-3.251 -0.875,-3.752 -1.001,-3.502 -0.687,-2.813 -0.503,-0.437 -0.062,5.314 1.189,8.317 0.752,6.565 0.248,3.689 2.253,3.626 3.378,6.19 2.129,4.565 1.187,4.565 3.184,4.028 4.3,6.644 -2.606,-2.736 -2.867,-4.561 -2.608,-3.516 -1.825,-5.08 -2.737,-5.211 -2.217,-4.819 -2.215,-3.128 -0.912,-3.907 -0.52,-7.296 -0.783,-5.73 -1.304,10.81 -0.26,9.771 -0.782,12.246 -0.261,6.513 0.261,11.202 v 5.211 l -0.391,4.951 -0.521,3.907 0.076,3.42 L 4.08,-1.596 0,0"
     inkscape:connector-curvature="0" /></g><g
   transform="translate(408.2793,413.1631)"
   id="g168"><path
     id="path170"
     style="fill:#000000;fill-opacity:1;fill-rule:evenodd;stroke:none"
     d="m 0,0 1.774,8.861 -0.74,12.256 -0.443,9.605 -0.15,7.237 -5.023,4.134 -1.772,5.317 -1.034,5.165 -0.887,4.434 -3.398,4.872 3.84,-4.282 0.889,-3.396 0.886,-4.432 1.183,-5.317 1.92,-2.361 3.396,-2.957 -0.293,6.055 -0.59,6.946 -1.037,7.237 v 2.214 l -7.091,18.902 0.442,0.153 7.537,-18.317 -1.331,10.189 -0.442,8.128 2.068,-0.153 0.444,-12.554 0.739,-8.415 0.887,-9.897 0.887,-7.975 0.147,-6.055 0.591,-6.647 4.878,2.806 9.457,2.219 L 8.72,31.311 3.989,28.209 3.842,24.667 4.433,16.538 4.287,10.629 5.319,5.32 5.174,3.838 5.319,0.441 5.614,-1.328 Z"
     inkscape:connector-curvature="0" /></g><g
   transform="translate(408.2793,413.1611)"
   id="g172"><path
     id="path174"
     style="fill:none;stroke:#000000;stroke-width:0.70899999;stroke-linecap:round;stroke-linejoin:round;stroke-miterlimit:4;stroke-dasharray:none;stroke-opacity:1"
     d="m 0,0 1.774,8.863 -0.74,12.259 -0.443,9.6 -0.148,7.236 -5.025,4.136 -1.772,5.317 -1.036,5.17 -0.885,4.431 -3.4,4.873 3.842,-4.284 0.889,-3.397 0.885,-4.429 1.182,-5.318 1.921,-2.363 3.399,-2.953 -0.295,6.055 -0.591,6.942 -1.036,7.237 v 2.214 l -7.092,18.906 0.443,0.147 7.537,-18.314 -1.331,10.19 -0.442,8.124 2.068,-0.147 0.444,-12.555 0.739,-8.418 0.887,-9.896 0.885,-7.975 0.149,-6.055 0.591,-6.647 4.875,2.806 9.46,2.215 L 8.718,31.312 3.989,28.211 3.842,24.665 4.433,16.542 4.285,10.635 5.319,5.316 5.172,3.84 5.319,0.443 5.614,-1.328 0,0"
     inkscape:connector-curvature="0" /></g><g
   transform="translate(259.1191,394.0752)"
   id="g176"><path
     id="path178"
     style="fill:#000000;fill-opacity:1;fill-rule:evenodd;stroke:none"
     d="m 0,0 -0.428,9.305 1.391,14.341 1.178,13.695 0.963,12.516 0.534,6.848 0.428,17.443 1.387,26.369 1.759,19.918 0.585,10.254 1.172,15.23 -0.293,10.255 2.639,0.293 V 140.646 L 8.969,114.283 7.797,85.575 8.09,63.606 6.625,35.191 4.867,14.104 4.574,2.389 4.28,-2.299 Z"
     inkscape:connector-curvature="0" /></g><g
   transform="translate(259.1191,394.0752)"
   id="g180"><path
     id="path182"
     style="fill:none;stroke:#000000;stroke-width:0.70899999;stroke-linecap:round;stroke-linejoin:round;stroke-miterlimit:4;stroke-dasharray:none;stroke-opacity:1"
     d="m 0,0 -0.428,9.309 1.391,14.337 1.178,13.695 0.963,12.517 0.536,6.85 0.426,17.44 1.387,26.369 1.759,19.918 0.585,10.253 1.173,15.232 -0.293,10.252 2.637,0.293 V 140.647 L 8.97,114.284 7.797,85.577 8.091,63.607 6.626,35.195 4.866,14.104 4.574,2.387 4.28,-2.299 0,0"
     inkscape:connector-curvature="0" /></g><g
   transform="translate(275.4141,382.6924)"
   id="g184"><path
     id="path186"
     style="fill:#000000;fill-opacity:1;fill-rule:evenodd;stroke:none"
     d="m 0,0 1.76,21.678 1.174,37.496 -0.293,38.077 0.586,27.243 -0.293,17.578 -0.882,15.523 0.589,9.962 2.93,-2.638 L 6.156,106.334 6.449,74.989 6.156,41.307 4.985,11.135 V 1.174 L 4.692,-2.928 Z"
     inkscape:connector-curvature="0" /></g><g
   transform="translate(275.416,382.6963)"
   id="g188"><path
     id="path190"
     style="fill:none;stroke:#000000;stroke-width:0.70899999;stroke-linecap:round;stroke-linejoin:round;stroke-miterlimit:4;stroke-dasharray:none;stroke-opacity:1"
     d="m 0,0 1.758,21.674 1.173,37.493 -0.294,38.082 0.587,27.242 -0.293,17.576 -0.879,15.524 0.585,9.96 2.932,-2.636 L 6.154,106.331 6.447,74.986 6.154,41.3 4.982,11.129 V 1.17 L 4.689,-2.932 0,0"
     inkscape:connector-curvature="0" /></g><g
   transform="translate(267.0791,495.9707)"
   id="g192"><path
     id="path194"
     style="fill:#000000;fill-opacity:1;fill-rule:evenodd;stroke:none"
     d="m 0,0 3.601,10.255 3.058,3.775 4.321,2.702 9.181,1.797 3.958,4.318 8.281,4.677 4.32,1.438 3.78,-2.159 2.239,0.098 4.372,1.361 -3.51,-0.716 -2.22,-0.499 -1.291,0.282 -3.151,1.79 -1.216,-0.21 -4.299,-1.58 L 29.276,26.043 25.338,23.895 23.26,22.68 20.968,20.173 19.25,18.957 15.453,18.17 11.013,17.377 7.718,15.664 5.141,14.302 3.709,17.237 2.704,19.028 3.709,16.093 4.495,14.085 2.848,10.797 2.132,8.361 1.058,6 -0.16,3.276 Z"
     inkscape:connector-curvature="0" /></g><g
   transform="translate(267.0791,495.9697)"
   id="g196"><path
     id="path198"
     style="fill:none;stroke:#000000;stroke-width:0.70899999;stroke-linecap:round;stroke-linejoin:round;stroke-miterlimit:4;stroke-dasharray:none;stroke-opacity:1"
     d="m 0,0 3.601,10.255 3.058,3.778 4.32,2.698 9.182,1.799 3.959,4.318 8.28,4.677 4.32,1.44 3.781,-2.159 2.24,0.096 4.368,1.361 -3.508,-0.716 -2.221,-0.502 -1.289,0.287 -3.152,1.789 L 35.722,28.907 31.424,27.332 29.276,26.043 25.338,23.896 23.26,22.678 20.969,20.174 19.249,18.957 15.453,18.169 11.012,17.382 7.718,15.663 5.141,14.303 3.707,17.238 2.704,19.028 3.707,16.093 4.495,14.089 2.848,10.796 2.132,8.362 1.057,6 -0.16,3.28 0,0"
     inkscape:connector-curvature="0" /></g><g
   transform="translate(264.0127,457.4863)"
   id="g200"><path
     id="path202"
     style="fill:#000000;fill-opacity:1;fill-rule:evenodd;stroke:none"
     d="m 0,0 -3.659,5.144 -6.367,4.47 -4.878,0.674 -4.471,-1.758 -4.605,-1.352 -2.172,-0.049 -4.188,1.667 4.151,-1.824 2.599,0.039 2.87,0.856 3.413,1.199 0.659,0.196 -1.902,-1.59 -0.465,-2.599 0.581,-3.255 -0.658,-1.086 -1.745,-0.738 1.708,0.543 1.008,1.514 -0.738,3.256 0.505,2.442 1.978,1.393 1.358,0.543 3.063,-0.151 1.707,-0.392 2.093,-1.356 3.959,-2.555 1.706,-2.795 1.281,-2.17 0.192,-2.637 -0.426,-1.047 -1.668,1.204 -1.356,1.048 -0.817,1.552 0.622,-1.982 1.279,-0.852 1.552,-1.475 0.931,-0.504 0.426,1.904 -0.114,3.098 z"
     inkscape:connector-curvature="0" /></g><g
   transform="translate(264.0117,457.4854)"
   id="g204"><path
     id="path206"
     style="fill:none;stroke:#000000;stroke-width:0.70899999;stroke-linecap:round;stroke-linejoin:round;stroke-miterlimit:4;stroke-dasharray:none;stroke-opacity:1"
     d="m 0,0 -3.657,5.145 -6.368,4.469 -4.877,0.676 -4.471,-1.759 -4.606,-1.354 -2.17,-0.048 -4.19,1.668 4.15,-1.823 2.599,0.039 2.87,0.853 3.414,1.201 0.659,0.195 -1.9,-1.589 -0.467,-2.599 0.583,-3.255 -0.659,-1.087 -1.746,-0.737 1.708,0.544 1.007,1.512 -0.737,3.257 0.504,2.442 1.979,1.396 1.357,0.542 3.065,-0.156 1.706,-0.386 2.096,-1.358 3.956,-2.558 1.706,-2.792 1.281,-2.171 0.192,-2.636 -0.426,-1.047 -1.668,1.202 -1.357,1.047 -0.815,1.55 0.621,-1.976 1.279,-0.854 1.552,-1.473 0.932,-0.503 0.426,1.899 L -0.589,0.578 0,0"
     inkscape:connector-curvature="0" /></g><g
   transform="translate(276.6934,374.6689)"
   id="g208"><path
     id="path210"
     style="fill:none;stroke:#000000;stroke-width:0.70899999;stroke-linecap:round;stroke-linejoin:round;stroke-miterlimit:4;stroke-dasharray:none;stroke-opacity:1"
     d="m 0,0 -5.97,-5.266 -10.534,-5.964 -8.075,-3.159 -16.855,-2.806 -14.397,-1.756 10.534,-2.809 13.695,-2.808 14.747,-2.104 11.237,-0.703 8.427,-0.35 1.052,1.053 1.757,8.422 3.862,6.668 4.565,2.809 9.48,3.859 8.779,2.457 -11.236,0.35 L 8.076,0 2.458,2.105 0,0"
     inkscape:connector-curvature="0" /></g><g
   transform="translate(296.0342,425.7358)"
   id="g212"><path
     id="path214"
     style="fill:#000000;fill-opacity:1;fill-rule:evenodd;stroke:none"
     d="m 0,0 1.134,1.66 1.45,1.556 1.594,0.993 2.05,0.777 1.662,0.142 1.7,-0.033 1.627,-0.321 1.169,-0.565 0.743,-0.282 -0.814,2.474 1.873,-1.627 0.496,0.955 0.777,0.495 1.027,0.139 h 0.319 l -0.673,2.442 2.019,-1.872 0.175,1.839 0.603,2.013 1.026,1.731 1.382,1.526 1.873,1.167 1.488,0.634 2.227,0.352 1.133,0.107 -2.511,-1.588 -1.629,-1.666 -0.46,-1.415 V 10.536 L 23.885,9.338 24.593,8.556 24.558,8.453 23.779,8.666 23.036,8.485 21.972,7.67 21.302,6.472 21.158,5.48 21.194,4.665 21.549,4.102 22.007,3.569 21.158,3.147 20.699,2.544 l -0.07,-0.955 0.247,-0.776 0.673,-1.026 0.849,-1.025 -4.103,2.155 -0.567,-4.629 -0.779,1.411 -1.061,1.134 -0.708,0.391 -0.602,0.103 L 14.084,-0.815 13.553,-1.238 12.95,-2.05 12.703,-0.603 12.206,0.354 11.466,0.846 10.508,1.063 9.519,0.994 8.953,0.563 8.388,-0.039 8.211,-1.096 7.678,0.037 6.829,1.026 5.698,1.589 4.669,1.768 3.504,1.627 1.84,1.026 0.566,0.354 Z"
     inkscape:connector-curvature="0" /></g><g
   transform="translate(226.3052,496.231)"
   id="g216"><path
     id="path218"
     style="fill:#000000;fill-opacity:1;fill-rule:evenodd;stroke:none"
     d="m 0,0 1.133,1.666 1.453,1.551 1.591,0.994 2.052,0.775 1.662,0.142 1.698,-0.033 1.629,-0.321 1.169,-0.563 0.74,-0.282 -0.811,2.473 1.874,-1.628 0.495,0.955 0.778,0.495 1.029,0.145 h 0.317 l -0.673,2.437 2.018,-1.872 0.177,1.84 0.603,2.013 1.024,1.736 1.381,1.519 1.875,1.166 1.487,0.636 2.226,0.358 1.134,0.102 -2.512,-1.59 -1.627,-1.666 -0.462,-1.409 V 10.542 L 23.887,9.337 24.591,8.563 24.556,8.454 23.778,8.665 23.037,8.491 21.974,7.678 21.301,6.473 21.16,5.486 21.195,4.671 21.55,4.102 22.009,3.576 21.16,3.146 20.701,2.55 l -0.07,-0.955 0.247,-0.781 0.672,-1.025 0.849,-1.025 -4.105,2.159 -0.565,-4.634 -0.779,1.417 -1.061,1.127 -0.708,0.391 -0.602,0.103 -0.494,-0.141 -0.531,-0.422 -0.603,-0.815 -0.247,1.449 L 12.208,0.353 11.464,0.852 10.51,1.063 9.519,0.994 8.953,0.57 8.388,-0.032 8.208,-1.096 7.68,0.039 6.83,1.026 5.697,1.595 4.672,1.769 3.504,1.627 1.842,1.026 0.567,0.353 Z"
     inkscape:connector-curvature="0" /></g><g
   transform="translate(161.4141,458.7671)"
   id="g220"><path
     id="path222"
     style="fill:#000000;fill-opacity:1;fill-rule:evenodd;stroke:none"
     d="m 0,0 1.134,1.666 1.449,1.551 1.592,0.994 2.054,0.775 1.662,0.14 1.698,-0.032 1.629,-0.32 1.166,-0.563 0.743,-0.283 -0.814,2.475 1.877,-1.629 0.495,0.956 0.778,0.493 1.025,0.146 h 0.321 l -0.674,2.436 2.017,-1.871 0.178,1.838 0.6,2.015 1.028,1.735 1.378,1.52 1.877,1.166 1.484,0.634 2.23,0.359 1.132,0.104 -2.512,-1.59 -1.628,-1.666 -0.458,-1.412 V 10.542 L 23.883,9.337 24.592,8.561 24.556,8.453 23.778,8.665 23.034,8.491 21.974,7.677 21.301,6.473 21.16,5.484 21.195,4.671 21.551,4.102 22.009,3.575 21.16,3.147 20.699,2.55 20.628,1.596 l 0.25,-0.783 0.673,-1.024 0.849,-1.027 -4.105,2.16 -0.566,-4.634 -0.78,1.417 -1.06,1.128 -0.708,0.391 -0.602,0.103 -0.497,-0.14 -0.529,-0.425 -0.602,-0.813 -0.247,1.449 -0.496,0.954 -0.744,0.5 L 10.509,1.063 9.52,0.993 8.953,0.569 8.385,-0.032 8.208,-1.097 7.68,0.039 6.831,1.025 5.697,1.596 4.671,1.769 3.505,1.628 1.838,1.025 0.567,0.352 Z"
     inkscape:connector-curvature="0" /></g><g
   transform="translate(286.1602,514.0327)"
   id="g224"><path
     id="path226"
     style="fill:#000000;fill-opacity:1;fill-rule:evenodd;stroke:none"
     d="m 0,0 10.168,0.222 4.199,-2.653 4.424,-8.171 -4.204,5.741 -3.093,2.876 -3.536,1.323 -7.073,-0.444 -4.864,0.667 z"
     inkscape:connector-curvature="0" /></g><g
   transform="translate(286.1602,514.0327)"
   id="g228"><path
     id="path230"
     style="fill:none;stroke:#000000;stroke-width:0.70899999;stroke-linecap:round;stroke-linejoin:round;stroke-miterlimit:4;stroke-dasharray:none;stroke-opacity:1"
     d="M 0,0 10.168,0.222 14.367,-2.43 18.788,-10.604 14.59,-4.86 11.494,-1.988 7.958,-0.662 0.884,-1.105 -3.979,-0.441 0,0"
     inkscape:connector-curvature="0" /></g><g
   transform="translate(260.0781,411.5264)"
   id="g232"><path
     id="path234"
     style="fill:#000000;fill-opacity:1;fill-rule:evenodd;stroke:none"
     d="m 0,0 0.218,5.963 -1.765,7.954 -2.654,4.86 -2.872,2.649 -6.192,1.991 -8.398,-0.223 -3.757,-0.885 7.736,0.223 5.084,-0.223 -2.211,-1.324 -3.537,-1.992 -3.095,-3.307 -2.208,-4.202 -0.885,-1.988 3.315,4.643 4.42,4.416 4.421,2.871 h 1.108 l 3.534,-0.886 2.43,-2.868 2.653,-6.188 2.212,-6.408 0.884,-2.867 z"
     inkscape:connector-curvature="0" /></g><g
   transform="translate(260.0781,411.5225)"
   id="g236"><path
     id="path238"
     style="fill:none;stroke:#000000;stroke-width:0.70899999;stroke-linecap:round;stroke-linejoin:round;stroke-miterlimit:4;stroke-dasharray:none;stroke-opacity:1"
     d="m 0,0 0.219,5.965 -1.767,7.953 -2.653,4.861 -2.874,2.651 -6.189,1.989 -8.399,-0.221 -3.758,-0.885 7.736,0.223 5.085,-0.223 -2.212,-1.324 -3.535,-1.989 -3.096,-3.314 -2.209,-4.198 -0.885,-1.988 3.316,4.639 4.421,4.42 4.42,2.871 h 1.106 l 3.536,-0.884 2.432,-2.87 2.653,-6.188 L -0.443,5.08 0.441,2.211 0,0"
     inkscape:connector-curvature="0" /></g><g
   transform="translate(266.707,437.3745)"
   id="g240"><path
     id="path242"
     style="fill:#000000;fill-opacity:1;fill-rule:evenodd;stroke:none"
     d="m 0,0 2.875,2.43 5.526,1.985 7.738,0.222 3.535,-1.105 -1.988,1.769 H 12.602 9.063 L 3.538,3.754 -1.104,0.661 Z"
     inkscape:connector-curvature="0" /></g><g
   transform="translate(266.708,437.3721)"
   id="g244"><path
     id="path246"
     style="fill:none;stroke:#000000;stroke-width:0.70899999;stroke-linecap:round;stroke-linejoin:round;stroke-miterlimit:4;stroke-dasharray:none;stroke-opacity:1"
     d="m 0,0 2.874,2.43 5.525,1.987 7.738,0.221 3.536,-1.104 -1.989,1.767 H 12.6 9.063 L 3.537,3.755 -1.104,0.664 0,0"
     inkscape:connector-curvature="0" /></g><text
   id="text250"
   style="font-variant:normal;font-weight:normal;font-stretch:normal;font-size:25.97795486px;font-family:'Arial Rounded MT Bold';-inkscape-font-specification:ArialRoundedMTBold;writing-mode:lr-tb;fill:#000000;fill-opacity:1;fill-rule:nonzero;stroke:none"
   transform="matrix(0.20260255,-0.97926105,-0.97926105,-0.20260255,91.8287,428.2669)"><tspan
     id="tspan248"
     y="0"
     x="0">S</tspan></text>

<text
   id="text254"
   style="font-variant:normal;font-weight:normal;font-stretch:normal;font-size:25.97802162px;font-family:'Arial Rounded MT Bold';-inkscape-font-specification:ArialRoundedMTBold;writing-mode:lr-tb;fill:#000000;fill-opacity:1;fill-rule:nonzero;stroke:none"
   transform="matrix(0.35207454,-0.93597196,-0.93597196,-0.35207454,99.6938,408.6802)"><tspan
     id="tspan252"
     y="0"
     x="0">S</tspan></text>

<text
   id="text258"
   style="font-variant:normal;font-weight:normal;font-stretch:normal;font-size:25.97802162px;font-family:'Arial Rounded MT Bold';-inkscape-font-specification:ArialRoundedMTBold;writing-mode:lr-tb;fill:#000000;fill-opacity:1;fill-rule:nonzero;stroke:none"
   transform="matrix(0.5180379,-0.85535766,-0.85535766,-0.5180379,111.1737,389.632)"><tspan
     id="tspan256"
     y="0"
     x="0">S</tspan></text>

<text
   id="text262"
   style="font-variant:normal;font-weight:normal;font-stretch:normal;font-size:25.97798157px;font-family:'Arial Rounded MT Bold';-inkscape-font-specification:ArialRoundedMTBold;writing-mode:lr-tb;fill:#000000;fill-opacity:1;fill-rule:nonzero;stroke:none"
   transform="matrix(0.6332401,0.77395541,0.77395541,-0.6332401,459.8688,372.7372)"><tspan
     id="tspan260"
     y="0"
     x="0">S</tspan></text>

<text
   id="text266"
   style="font-variant:normal;font-weight:normal;font-stretch:normal;font-size:25.97799492px;font-family:'Arial Rounded MT Bold';-inkscape-font-specification:ArialRoundedMTBold;writing-mode:lr-tb;fill:#000000;fill-opacity:1;fill-rule:nonzero;stroke:none"
   transform="matrix(0.52161069,0.85318362,0.85318362,-0.52161069,472.845,387.9952)"><tspan
     id="tspan264"
     y="0"
     x="0">G</tspan></text>

<text
   id="text270"
   style="font-variant:normal;font-weight:normal;font-stretch:normal;font-size:25.97797966px;font-family:'Arial Rounded MT Bold';-inkscape-font-specification:ArialRoundedMTBold;writing-mode:lr-tb;fill:#000000;fill-opacity:1;fill-rule:nonzero;stroke:none"
   transform="matrix(0.40063547,0.91623754,0.91623754,-0.40063547,484.3918,408.7516)"><tspan
     id="tspan268"
     y="0"
     x="0">H</tspan></text>

<g
   transform="translate(162.5054,420.5298)"
   id="g272"><path
     id="path274"
     style="fill:none;stroke:#000000;stroke-width:0.70899999;stroke-linecap:round;stroke-linejoin:round;stroke-miterlimit:4;stroke-dasharray:none;stroke-opacity:1"
     d="m 0,0 13.704,-1.207 12.091,-4.431 14.51,-9.668 18.138,-11.682 9.673,-8.461 14.912,-6.445 7.659,-2.82 -15.316,3.222 -11.689,2.821 -12.494,5.236 -3.628,1.209 5.643,-7.654 8.464,-4.834 12.092,-5.237 -22.571,6.446 -8.868,5.64 -7.657,7.653 -8.868,11.281 -5.24,6.041 L 13.3,-9.263 2.418,-3.623 -10.077,-0.401 0,0"
     inkscape:connector-curvature="0" /></g><g
   transform="translate(280.0195,467.2144)"
   id="g276"><path
     id="path278"
     style="fill:#000000;fill-opacity:1;fill-rule:evenodd;stroke:none"
     d="m 0,0 4.354,6.381 4.061,3.191 4.064,0.868 2.612,0.291 L 17.122,9.859 20.604,5.8 23.506,4.058 27.86,3.19 31.921,1.449 23.797,3.19 18.861,5.8 l -0.87,-1.742 -0.58,-2.609 1.45,-3.771 2.613,-3.771 3.193,-1.448 -3.337,1.079 -2.34,2.653 -1.768,2.849 -0.571,2.843 0.571,2.654 0.503,1.709 -0.252,1.133 -0.822,1.579 -1.517,0.76 L 10.579,9.403 6.722,7.254 5.016,4.851 2.676,1.758 1.348,-0.58 Z"
     inkscape:connector-curvature="0" /></g><g
   transform="translate(280.0195,467.2119)"
   id="g280"><path
     id="path282"
     style="fill:none;stroke:#000000;stroke-width:0.70899999;stroke-linecap:round;stroke-linejoin:round;stroke-miterlimit:4;stroke-dasharray:none;stroke-opacity:1"
     d="m 0,0 4.354,6.382 4.062,3.19 4.063,0.87 2.611,0.291 L 17.121,9.862 20.604,5.8 23.506,4.061 27.86,3.19 31.921,1.45 23.797,3.19 18.863,5.8 17.993,4.061 17.412,1.45 l 1.451,-3.77 2.611,-3.77 3.193,-1.451 -3.337,1.083 -2.34,2.655 -1.771,2.843 -0.568,2.845 0.568,2.655 0.506,1.706 -0.252,1.137 -0.822,1.58 L 15.134,9.722 10.58,9.406 6.723,7.257 5.016,4.855 2.676,1.758 1.349,-0.58 0,0"
     inkscape:connector-curvature="0" /></g><g
   transform="translate(280.0195,397.3115)"
   id="g284"><path
     id="path286"
     style="fill:#000000;fill-opacity:1;fill-rule:evenodd;stroke:none"
     d="M 0,0 2.901,3.482 8.706,7.834 11.607,8.988 16.832,10.15 5.805,7.541 -1.161,2.9 Z"
     inkscape:connector-curvature="0" /></g><g
   transform="translate(280.0195,397.3115)"
   id="g288"><path
     id="path290"
     style="fill:none;stroke:#000000;stroke-width:0.70899999;stroke-linecap:round;stroke-linejoin:round;stroke-miterlimit:4;stroke-dasharray:none;stroke-opacity:1"
     d="m 0,0 2.901,3.48 5.805,4.35 2.901,1.16 5.225,1.162 L 5.804,7.541 -1.161,2.9 0,0"
     inkscape:connector-curvature="0" /></g><g
   transform="translate(309.0381,353.208)"
   id="g292"><path
     id="path294"
     style="fill:none;stroke:#000000;stroke-width:0.70899999;stroke-linecap:round;stroke-linejoin:round;stroke-miterlimit:4;stroke-dasharray:none;stroke-opacity:1"
     d="m 0,0 16.252,1.16 20.314,5.221 29.891,8.992 17.991,11.313 10.157,10.73 3.194,5.221 L 89.672,36.256 67.038,23.494 48.174,18.273 28.15,13.633 8.416,11.021 21.476,8.121 0,0"
     inkscape:connector-curvature="0" /></g></g></g></g></svg>